<svg width="32" height="32" viewBox="0 0 32 32" fill="none" xmlns="http://www.w3.org/2000/svg">
  <!-- Columbine flower favicon based on the provided design -->
  <rect width="32" height="32" fill="#F5F0E6"/>
  
  <!-- Outer purple petals -->
  <g fill="#5C2D91" stroke="#2D2D2D" stroke-width="0.5">
    <path d="M16 4C16 4 12 8 12 12C12 16 16 20 16 20C16 20 20 16 20 12C20 8 16 4 16 4Z"/>
    <path d="M16 12C16 12 12 16 12 20C12 24 16 28 16 28C16 28 20 24 20 20C20 16 16 12 16 12Z"/>
    <path d="M4 16C4 16 8 12 12 12C16 12 20 16 20 16C20 16 16 20 12 20C8 20 4 16 4 16Z"/>
    <path d="M28 16C28 16 24 20 20 20C16 20 12 16 12 16C12 16 16 12 20 12C24 12 28 16 28 16Z"/>
  </g>
  
  <!-- Inner lavender petals -->
  <g fill="#938EC0" stroke="#2D2D2D" stroke-width="0.3">
    <path d="M16 8C16 8 14 10 14 12C14 14 16 16 16 16C16 16 18 14 18 12C18 10 16 8 16 8Z"/>
    <path d="M16 16C16 16 14 18 14 20C14 22 16 24 16 24C16 24 18 22 18 20C18 18 16 16 16 16Z"/>
    <path d="M8 16C8 16 10 14 12 14C14 14 16 16 16 16C16 16 14 18 12 18C10 18 8 16 8 16Z"/>
    <path d="M24 16C24 16 22 18 20 18C18 18 16 16 16 16C16 16 18 14 20 14C22 14 24 16 24 16Z"/>
  </g>
  
  <!-- Center stamens -->
  <g fill="#F2C94C" stroke="#2D2D2D" stroke-width="0.2">
    <circle cx="16" cy="16" r="2"/>
    <circle cx="15" cy="15" r="0.5" fill="#2D2D2D"/>
    <circle cx="17" cy="15" r="0.5" fill="#2D2D2D"/>
    <circle cx="15" cy="17" r="0.5" fill="#2D2D2D"/>
    <circle cx="17" cy="17" r="0.5" fill="#2D2D2D"/>
  </g>
  
  <!-- Stem -->
  <rect x="15.5" y="20" width="1" height="8" fill="#2D2D2D"/>
  
  <!-- Leaves -->
  <g fill="#3A664E" stroke="#2D2D2D" stroke-width="0.3">
    <path d="M12 24C12 24 10 22 8 24C6 26 8 28 10 26C12 24 12 24 12 24Z"/>
    <path d="M20 24C20 24 22 22 24 24C26 26 24 28 22 26C20 24 20 24 20 24Z"/>
  </g>
</svg>