<svg width="32" height="32" viewBox="0 0 32 32" fill="none" xmlns="http://www.w3.org/2000/svg">
  <!-- Simplified columbine flower for favicon -->
  <rect width="32" height="32" fill="#F5F0E6"/>
  
  <!-- Main flower - simplified for small size -->
  <g fill="#5C2D91" stroke="#2D2D2D" stroke-width="1">
    <!-- Outer petals -->
    <path d="M16 6C16 6 13 9 13 12C13 15 16 18 16 18C16 18 19 15 19 12C19 9 16 6 16 6Z"/>
    <path d="M16 14C16 14 13 17 13 20C13 23 16 26 16 26C16 26 19 23 19 20C19 17 16 14 16 14Z"/>
    <path d="M6 16C6 16 9 13 12 13C15 13 18 16 18 16C18 16 15 19 12 19C9 19 6 16 6 16Z"/>
    <path d="M26 16C26 16 23 19 20 19C17 19 14 16 14 16C14 16 17 13 20 13C23 13 26 16 26 16Z"/>
    
    <!-- Center -->
    <circle cx="16" cy="16" r="3" fill="#F2C94C"/>
  </g>
</svg>
