<svg width="40" height="40" viewBox="0 0 40 40" fill="none" xmlns="http://www.w3.org/2000/svg">
  <!-- Columbine flower logo - detailed design -->
  <rect width="40" height="40" fill="#F5F0E6"/>
  
  <!-- Outer purple petals -->
  <g fill="#5C2D91" stroke="#2D2D2D" stroke-width="0.6">
    <path d="M20 5C20 5 16 9 16 13C16 17 20 21 20 21C20 21 24 17 24 13C24 9 20 5 20 5Z"/>
    <path d="M20 19C20 19 16 23 16 27C16 31 20 35 20 35C20 35 24 31 24 27C24 23 20 19 20 19Z"/>
    <path d="M5 20C5 20 9 16 13 16C17 16 21 20 21 20C21 20 17 24 13 24C9 24 5 20 5 20Z"/>
    <path d="M35 20C35 20 31 24 27 24C23 24 19 20 19 20C19 20 23 16 27 16C31 16 35 20 35 20Z"/>
  </g>
  
  <!-- Inner lavender petals -->
  <g fill="#938EC0" stroke="#2D2D2D" stroke-width="0.4">
    <path d="M20 9C20 9 18 11 18 13C18 15 20 17 20 17C20 17 22 15 22 13C22 11 20 9 20 9Z"/>
    <path d="M20 23C20 23 18 25 18 27C18 29 20 31 20 31C20 31 22 29 22 27C22 25 20 23 20 23Z"/>
    <path d="M9 20C9 20 11 18 13 18C15 18 17 20 17 20C17 20 15 22 13 22C11 22 9 20 9 20Z"/>
    <path d="M31 20C31 20 29 22 27 22C25 22 23 20 23 20C23 20 25 18 27 18C29 18 31 20 31 20Z"/>
  </g>
  
  <!-- Center stamens -->
  <g fill="#F2C94C" stroke="#2D2D2D" stroke-width="0.3">
    <circle cx="20" cy="20" r="3"/>
    <circle cx="19" cy="19" r="0.6" fill="#2D2D2D"/>
    <circle cx="21" cy="19" r="0.6" fill="#2D2D2D"/>
    <circle cx="19" cy="21" r="0.6" fill="#2D2D2D"/>
    <circle cx="21" cy="21" r="0.6" fill="#2D2D2D"/>
  </g>
  
  <!-- Stem -->
  <rect x="19.5" y="25" width="1" height="10" fill="#2D2D2D"/>
  
  <!-- Leaves -->
  <g fill="#3A664E" stroke="#2D2D2D" stroke-width="0.4">
    <path d="M15 30C15 30 13 28 11 30C9 32 11 34 13 32C15 30 15 30 15 30Z"/>
    <path d="M25 30C25 30 27 28 29 30C31 32 29 34 27 32C25 30 25 30 25 30Z"/>
  </g>
</svg>