<svg id="Layer_1" data-name="Layer 1" xmlns="http://www.w3.org/2000/svg" viewBox="0 0 1920 1080"><defs><style>.cls-1{fill:#483287;}.cls-2{fill:#676bbb;}.cls-3{fill:#cac9f5;}.cls-4{fill:#fcc400;stroke:#483287;stroke-miterlimit:10;stroke-width:0.25px;}.cls-5{fill:#748064;}</style></defs><path class="cls-1" d="M607.77,771.64a27.46,27.46,0,0,0-2.94-8.86,25.85,25.85,0,0,0-5.61-7.12,25,25,0,0,0-7.85-4.73,27,27,0,0,0-9.69-1.7,32.37,32.37,0,0,0-8.91,1.06,12.8,12.8,0,0,0-6,3.49,14.57,14.57,0,0,0-3.35,6.34,36.73,36.73,0,0,0-1.06,9.52v51.21a37.46,37.46,0,0,0,1.06,9.7,13.32,13.32,0,0,0,3.53,6.3,14.07,14.07,0,0,0,6.48,3.4,40.15,40.15,0,0,0,9.78,1h4.23a37,37,0,0,0,9.55-1,13.52,13.52,0,0,0,6.24-3.49,14.07,14.07,0,0,0,3.45-6.29,37,37,0,0,0,1.06-9.56v-8.72h5.51v13.13a38.34,38.34,0,0,1-.65,6.66,15.94,15.94,0,0,1-9,11.85q-4.1,2.07-10.89,2.07H562.57a19.41,19.41,0,0,1-7.76-1.61,21.16,21.16,0,0,1-6.56-4.41,21.67,21.67,0,0,1-4.55-6.52,19.16,19.16,0,0,1-1.7-8V765.21a19.27,19.27,0,0,1,1.7-8,21.13,21.13,0,0,1,4.59-6.57,22.44,22.44,0,0,1,6.57-4.41,19.06,19.06,0,0,1,7.71-1.6H592.7q6.79,0,10.89,2a16.23,16.23,0,0,1,6.24,5.1,16.56,16.56,0,0,1,2.8,6.7,38.34,38.34,0,0,1,.65,6.66v6.52Z"/><path class="cls-1" d="M688.59,744.64A26.21,26.21,0,0,1,697,746a21.53,21.53,0,0,1,7.12,4,19.16,19.16,0,0,1,4.91,6.48,20.18,20.18,0,0,1,1.84,8.81v60a19.88,19.88,0,0,1-1.84,8.77,19.16,19.16,0,0,1-4.91,6.43,21.53,21.53,0,0,1-7.12,4,25.94,25.94,0,0,1-8.45,1.38H657.82a25.94,25.94,0,0,1-8.45-1.38,21.63,21.63,0,0,1-7.12-4,19.83,19.83,0,0,1-5-6.43,19.61,19.61,0,0,1-1.88-8.77v-60A19.54,19.54,0,0,1,642.25,750a21.63,21.63,0,0,1,7.12-4,26.21,26.21,0,0,1,8.45-1.37ZM655.8,820.92a40,40,0,0,0,.92,9.12,15.42,15.42,0,0,0,3,6.35,12.32,12.32,0,0,0,5.38,3.68,23.83,23.83,0,0,0,8.08,1.19,24.3,24.3,0,0,0,8.13-1.19,12.33,12.33,0,0,0,5.42-3.68,15.3,15.3,0,0,0,3-6.35,40,40,0,0,0,.92-9.12V769.57a39.9,39.9,0,0,0-.92-9.11,15.18,15.18,0,0,0-3-6.35,12.17,12.17,0,0,0-5.42-3.68,24.28,24.28,0,0,0-8.13-1.2,23.81,23.81,0,0,0-8.08,1.2,12.15,12.15,0,0,0-5.38,3.68,15.3,15.3,0,0,0-3,6.35,39.9,39.9,0,0,0-.92,9.11Z"/><path class="cls-1" d="M758.67,713.32V829a28.13,28.13,0,0,0,1.06,7.94,13.06,13.06,0,0,0,3.58,6c1.68,1.59,4.18,2.39,7.48,2.39.19,0,.28.09.28.27a.25.25,0,0,1-.28.28h-12.4q-7.15,0-11.25-1.61a13.56,13.56,0,0,1-6.15-4.41,13.92,13.92,0,0,1-2.57-6.57,59.53,59.53,0,0,1-.51-8v-90a42,42,0,0,1,1.1-10.38,15.4,15.4,0,0,1,3.54-6.8,13.58,13.58,0,0,1,6.38-3.67A36.56,36.56,0,0,1,758.67,713.32Z"/><path class="cls-1" d="M809.09,845.86a26.18,26.18,0,0,1-10.42-1.75,14.33,14.33,0,0,1-6.25-5,19.29,19.29,0,0,1-3-7.77,58.8,58.8,0,0,1-.78-10v-57a44.68,44.68,0,0,1,1-10,14.13,14.13,0,0,1,3.34-6.62,13.35,13.35,0,0,1,6.4-3.62A38.47,38.47,0,0,1,809.37,743v82.3a21.11,21.11,0,0,0,1.1,7.17,11.24,11.24,0,0,0,3.55,5,15.49,15.49,0,0,0,6.39,2.89,43.51,43.51,0,0,0,9.76.92h8.18q10.3,0,15.6-3.67t5.29-11.94V753.91c0-2.08,0-3.82.14-5.23a11.1,11.1,0,0,1,.64-3.35,3.38,3.38,0,0,1,1.57-1.8,6.37,6.37,0,0,1,2.89-.55v82.67a26.8,26.8,0,0,1-1.06,7.58,15.9,15.9,0,0,1-3.63,6.43,18.16,18.16,0,0,1-6.93,4.5,30.59,30.59,0,0,1-11,1.7Z"/><path class="cls-1" d="M1009.6,746.24a21.28,21.28,0,0,1,11.16,11,19.27,19.27,0,0,1,1.7,8v59.15a44.85,44.85,0,0,1-1,10.11,14.42,14.42,0,0,1-3.3,6.66,13.17,13.17,0,0,1-6.39,3.62,38.8,38.8,0,0,1-10.1,1.11V769.55q0-10.57-4.09-15.45t-13-4.87H967.53v75.11a47.83,47.83,0,0,1-.64,8.37,19.33,19.33,0,0,1-2.07,6.11,11.49,11.49,0,0,1-3.86,4.1,17.58,17.58,0,0,1-6,2.29,43.89,43.89,0,0,1-6.06.65h-2.3V768.54q-.18-10-4.32-14.67t-12.76-4.64H912.42v75.11a45.53,45.53,0,0,1-1,10.12,14,14,0,0,1-3.4,6.66,13.69,13.69,0,0,1-6.48,3.63,38.8,38.8,0,0,1-10.1,1.11V744.64H1001.7A19.92,19.92,0,0,1,1009.6,746.24Z"/><path class="cls-1" d="M1069.67,713.41v31.23h34.72a19.54,19.54,0,0,1,7.9,1.6,21,21,0,0,1,6.43,4.37,20.61,20.61,0,0,1,4.36,6.47,19.86,19.86,0,0,1,1.61,7.95v60.44a19.84,19.84,0,0,1-1.61,7.94,20.77,20.77,0,0,1-4.36,6.48,21,21,0,0,1-6.43,4.36,19.55,19.55,0,0,1-7.9,1.61h-55.48V735.45A42.48,42.48,0,0,1,1050,725a15.15,15.15,0,0,1,3.58-6.8,14,14,0,0,1,6.43-3.67A36.15,36.15,0,0,1,1069.67,713.41Zm0,35.82v92h13.59a39.65,39.65,0,0,0,9.83-1,14.61,14.61,0,0,0,6.57-3.49,13.73,13.73,0,0,0,3.62-6.37,36.14,36.14,0,0,0,1.11-9.64v-51.2a35.54,35.54,0,0,0-1.11-9.59,13.46,13.46,0,0,0-3.62-6.29,14.49,14.49,0,0,0-6.57-3.39,41.33,41.33,0,0,0-9.83-1Z"/><path class="cls-1" d="M1162.3,710.84a11,11,0,0,1,4.42.91,12,12,0,0,1,3.69,2.48,11.78,11.78,0,0,1,2.49,3.68,11.22,11.22,0,0,1,.92,4.5,11.56,11.56,0,0,1-.92,4.55,12.27,12.27,0,0,1-2.49,3.76,12,12,0,0,1-3.69,2.57,10.46,10.46,0,0,1-4.42,1,10.67,10.67,0,0,1-4.52-1,12.65,12.65,0,0,1-3.74-2.57,12.52,12.52,0,0,1-2.58-3.76,10.94,10.94,0,0,1-1-4.55,10.41,10.41,0,0,1,1-4.41,12.59,12.59,0,0,1,2.58-3.72,12.17,12.17,0,0,1,3.74-2.53A11.27,11.27,0,0,1,1162.3,710.84Z"/><path class="cls-1" d="M1172.54,824.55a44.77,44.77,0,0,1-1,10.06,14.11,14.11,0,0,1-3.32,6.56,13.36,13.36,0,0,1-6.37,3.58,38.59,38.59,0,0,1-10.1,1.11V764.93a41.45,41.45,0,0,1,1.1-10.33,15.35,15.35,0,0,1,3.56-6.75,14,14,0,0,1,6.41-3.72,35.44,35.44,0,0,1,9.69-1.15Z"/><path class="cls-1" d="M1262.55,746.24a21.28,21.28,0,0,1,11.16,11,19.27,19.27,0,0,1,1.7,8v59.15a45.44,45.44,0,0,1-1,10.11,14.42,14.42,0,0,1-3.3,6.66,13.22,13.22,0,0,1-6.39,3.62,38.8,38.8,0,0,1-10.1,1.11V769.55q0-10.57-4.09-15.45t-13-4.87h-17.08v75.11a45.53,45.53,0,0,1-1,10.12,14,14,0,0,1-3.4,6.66,13.74,13.74,0,0,1-6.48,3.63,38.8,38.8,0,0,1-10.1,1.11V744.64h55.11A20,20,0,0,1,1262.55,746.24Z"/><path class="cls-1" d="M1322.71,782.75V821a36.15,36.15,0,0,0,1.1,9.65,13.88,13.88,0,0,0,3.53,6.34,14.15,14.15,0,0,0,6.43,3.44,38.64,38.64,0,0,0,9.79,1.06h1a38,38,0,0,0,9.73-1.06,14.42,14.42,0,0,0,6.43-3.44,13.37,13.37,0,0,0,3.54-6.34,38.08,38.08,0,0,0,1-9.65v-8.72h5.24v13.23a37.46,37.46,0,0,1-.64,6.61,16.92,16.92,0,0,1-2.76,6.66,15.91,15.91,0,0,1-6.15,5.1q-4,2-10.84,2h-27.46a16.66,16.66,0,0,1-7.31-1.75,23.59,23.59,0,0,1-6.52-4.64,24.38,24.38,0,0,1-4.68-6.52,16.63,16.63,0,0,1-1.79-7.48V765a18,18,0,0,1,1.65-7.63,20.9,20.9,0,0,1,4.5-6.33,23.61,23.61,0,0,1,6.48-4.46,21.25,21.25,0,0,1,7.67-2h34.9a19.8,19.8,0,0,1,7.94,1.6,20.57,20.57,0,0,1,6.48,4.41,21.13,21.13,0,0,1,4.36,6.52A19.63,19.63,0,0,1,1378,765v17.72Zm17.45-33.34q-9.56,0-13.5,4.81t-4,15.24v8.7h34.9v-8.7a38.86,38.86,0,0,0-.92-9,14.85,14.85,0,0,0-3-6.23,12.46,12.46,0,0,0-5.38-3.62A24.4,24.4,0,0,0,1340.16,749.41Z"/><path class="cls-1" d="M714.67,883.42H700.51v-5.18h34.18v5.18H720.53v35.76h-5.86Z"/><path class="cls-1" d="M784.68,878.24h5.87v17.7h23v-17.7h5.86v40.94H813.5v-18h-23v18h-5.87Z"/><path class="cls-1" d="M872.87,919.18V878.24h23v5.18H878.73v12.52h16.71v5.19H878.73V914h17.91v5.18Z"/><path class="cls-1" d="M947.43,878.24h10.49q6.3,0,9.72,2.88t3.41,8.23c0,3.53-1.14,6.26-3.43,8.17a11.22,11.22,0,0,1-3.87,2.08l.94.56a21.18,21.18,0,0,1,6.16,6.54l8.2,12.48h-7l-6.72-10.61a21.19,21.19,0,0,0-4.81-5.7,8.61,8.61,0,0,0-5.22-1.65h-2v18h-5.86Zm5.86,17.58h4.63a7.83,7.83,0,0,0,5.26-1.51,5.7,5.7,0,0,0,1.75-4.56,5.8,5.8,0,0,0-1.75-4.6,7.83,7.83,0,0,0-5.26-1.52h-4.63Z"/><path class="cls-1" d="M1041,877.82h4.1l18.38,41.36h-6.42L1051.81,907h-17l-5,12.19h-6.33Zm-4.1,24h12.7l-6.56-14.89h0Z"/><path class="cls-1" d="M1112.13,878.24h11.38q7.14,0,10.8,2.93t3.65,8.67c0,3.72-1.25,6.57-3.76,8.58s-6.06,3-10.69,3H1118v17.76h-5.86ZM1118,896h6.22q3.84,0,5.73-1.54a6.69,6.69,0,0,0,0-9.32q-1.89-1.54-5.73-1.54H1118Z"/><path class="cls-1" d="M1198.18,898,1183,878.24h7.73l10.44,14.51v0l10.43-14.49h7.67L1204,897.93v21.25h-5.86Z"/><path class="cls-1" d="M1155,679.43a7.9,7.9,0,0,0-1.66-1.95,87.25,87.25,0,0,1-26.75-37.68c-6.12-16.57-7.74-35.83-10.76-51.46a87.05,87.05,0,0,0-23.73-45.25,2,2,0,0,1-.53-1.62c1.39-9.43-1.55-17.46-8.75-24.12a133.63,133.63,0,0,0-27.42-19.46s-.06-.06,0-.12l.11-.35a.27.27,0,0,1,.38-.21,160.59,160.59,0,0,0,37.34,11.35c14,2.44,27.79-2,34.26-15.16,6-12.34,5-28.21,4-41a.91.91,0,0,1,1-.95c5.36.53,10.93.42,16,1.15q15.52,2.21,26.77,3.65c14.21,1.8,27.29,1.33,40.46-4.75,7.1-3.26,17.28-11.83,16.23-20.65a.71.71,0,0,0-1.23-.42c-18.24,19.69-43.6,14.5-67,9.31-9.69-2.14-20.94-3.17-33.8-3.16a1,1,0,0,1-.86-.48c-.46-.84-1.17-2.18-2.15-4.05-10-19.29-30-18.07-47.8-12.17a.15.15,0,0,1-.11-.08s0-.08,0-.11c1.69-.86,8.54-4.11,20.61-9.81a136.51,136.51,0,0,0,17.57-9.77q21.19-13.92,31.67-38.41c3.25-7.59,5.45-12.77,6.61-15.47a141.12,141.12,0,0,1,26.26-40.16c10.56-11.31,21.28-25.18,23.67-39.5a1.71,1.71,0,0,0-2.72-1.65,82.49,82.49,0,0,1-42.28,16.29c-13.43,1.39-28.45,1.41-40.27,3.51q-37.36,6.62-59.73,39.12a1.13,1.13,0,0,1-1.07.49c-12.79-1.63-23.44,4.64-31,14.21a92.26,92.26,0,0,0-9.07,13.13q-8.75,16.28-15.46,28.53a.29.29,0,0,1-.55-.15,22.09,22.09,0,0,1,.55-3.4q5.06-22.25,8.64-38a163.55,163.55,0,0,0,3.56-28.51c1-22.36-5.07-42.28-17-60.9-7.46-11.72-15.59-22.88-22.26-34.73-7.4-13.13-12.86-26-19.69-37.91a62.26,62.26,0,0,0-12.42-15.44,1.22,1.22,0,0,0-1.76.11,1.1,1.1,0,0,0-.18,1.2q7.63,20.82-1.9,41.22c-3,6.43-8.12,15.08-15.29,25.91-5,7.63-9.41,14.36-12.51,21.37a83.15,83.15,0,0,0-6.73,41.84c1.76,19.41,7.4,38.08,14.62,55.92q3.27,8.12,7.78,20.05a.13.13,0,0,1-.06.17.12.12,0,0,1-.19,0c-1.24-1.91-2.29-3.38-3.14-4.44q-9.37-11.55-33.8-41A104,104,0,0,1,875.35,297c-4.16-10-6.53-22.61-9-31.75-2.07-7.49-4-13.67-8.64-18.62a1.53,1.53,0,0,0-1-.53,1.16,1.16,0,0,0-1.19,1.34c.37,3.56,1.45,7.82,1.79,12,.78,8.66,1.58,15.71,2.39,21.09,4.24,28.24,20.11,51.68,40.76,72.34a.29.29,0,0,1-.26.5,37.68,37.68,0,0,0-24.76,3.71,1.82,1.82,0,0,1-2.12-.31,61.77,61.77,0,0,0-31.67-17c-16.16-3.18-33.37-.05-48.21-.23s-28.56-3.58-45.19-8.51a108.85,108.85,0,0,0-18.6-3.61,37.93,37.93,0,0,0-18.08,2,2,2,0,0,0-1.18,2.79,3,3,0,0,0,.79.61c3.22,1.95,8.61,4.1,11.93,6.36a63.31,63.31,0,0,1,13.53,12.35q6.09,7.39,19,26.89A249.35,249.35,0,0,0,778,406.91,104.36,104.36,0,0,0,824.37,437a46.13,46.13,0,0,0,9.86,2h0c.81.08,13.79,1.32,16.69.94s9.65,5.37-2.15,14.27h0A30.08,30.08,0,0,0,837.9,470.1a1.35,1.35,0,0,1-.88.86,110.75,110.75,0,0,0-35,15.5q-3.25,2.19-21.22,15.54c-13.57,10.11-32.35,12.71-49.27,9.8a1,1,0,0,0-.89,1.64,21.12,21.12,0,0,0,8.48,5.24q21.66,7.47,43.29-3.64c15-7.68,35.89-20.75,54.41-29.43a.43.43,0,0,1,.61.3,145.17,145.17,0,0,0,10.75,36.14.89.89,0,0,1-.3,1.13,98.15,98.15,0,0,0-31.18,38.42,69.16,69.16,0,0,0-6.82,26.71q-.66,20-.72,24.08c-.15,13.71-2.69,26.27-9.85,37.86-4.59,7.45-12.38,12.94-20.34,17.6a.71.71,0,0,0,0,1.28,19.29,19.29,0,0,0,7.43,1.84q15.9,1,30.18-8.45A318.44,318.44,0,0,1,857,639.74q19.31-9,22.28-10.83c18.69-11.29,33.68-23.76,42.44-43.69a.55.55,0,0,1,.84-.2c7.2,5.52,16.43,9.59,25.35,12.11a.79.79,0,0,1,.54.85c-1.43,10.71-4.06,20.38-6.3,30.42a164.63,164.63,0,0,1-5.32,17.54c-2.22,6.48-5.47,15-9.75,25.58a.77.77,0,0,0,1.2.89,76.94,76.94,0,0,0,21.51-27.85,184.66,184.66,0,0,0,13.75-43.2,1.56,1.56,0,0,1,1.35-1.26c17.14-1.69,24.56-12.57,28.22-28.18a.35.35,0,0,1,.38-.29.36.36,0,0,1,.35.33,103.79,103.79,0,0,0,15.59,46.48c11.55,18.41,28.76,31,49.67,38.48,8.19,2.91,14.09,4.8,17.69,5.63q38.26,8.9,64.55,16.74a55.4,55.4,0,0,0,12.36,2.37A1.46,1.46,0,0,0,1155,679.43ZM1136.78,442c9.76-2.11,21.7-.3,32.78,2.06q14.31,3,17.46,3.25c14.72,1,27.9-1.1,39.94-9.93a.2.2,0,0,1,.3.27C1216,457,1185.48,455.38,1166.57,452c-13.07-2.36-23.32-4-30.84-4.8a.08.08,0,1,1,0-.15,182.61,182.61,0,0,1,29.49.28.3.3,0,0,0,.35-.29l.05-.34c0-.05,0-.11-.09-.13l-28.73-3.83a.37.37,0,0,1-.31-.36A.37.37,0,0,1,1136.78,442Zm-5.19-155.53q14.4-.85,29.09-2.3a86.47,86.47,0,0,0,40-14.13.41.41,0,0,1,.61.49,87.63,87.63,0,0,1-14.69,25.42c-.56.68-4.09,4.64-10.52,11.89a129.08,129.08,0,0,0-20.61,30.92q-1.93,4.13-9.57,22.37a63,63,0,0,1-9.55,16c-8.65,10.46-23,18.29-35.88,23.23-.17.09-.33-.13-.2-.25a15.49,15.49,0,0,1,3.63-3c12.36-7.33,24.49-16.3,32.43-27.35a.32.32,0,0,0-.06-.46.2.2,0,0,0-.28,0,89.63,89.63,0,0,1-30,19.53s-.09,0-.11,0a.08.08,0,0,1,0-.11c12-7.87,22.63-19.06,32.22-28a27.81,27.81,0,0,0,5.44-7.53.27.27,0,0,0-.07-.3.24.24,0,0,0-.32,0,110.54,110.54,0,0,1-31,22.6.27.27,0,0,1-.34-.09.25.25,0,0,1,.07-.31q9.88-8.58,19.83-18.15a77.7,77.7,0,0,0,11.45-13.94.4.4,0,0,0-.11-.55.31.31,0,0,0-.46.06,116.8,116.8,0,0,1-32.83,27.21.51.51,0,0,1-.67-.1l-.37-.42a.4.4,0,0,1,.08-.55,178.33,178.33,0,0,0,19.28-17.64.33.33,0,0,0,0-.39l0,0a.34.34,0,0,0-.45-.05,126.91,126.91,0,0,1-20,12.78.54.54,0,0,1-.71-.79,14.27,14.27,0,0,1,2.74-2.69c14.3-11.46,25.45-20.39,36.87-31.37a4.81,4.81,0,0,0,.66-.84c.12-.26-.19-.52-.4-.32q-13.14,10.9-26.4,19.89a97.67,97.67,0,0,1-15.07,8.41.93.93,0,0,1-1.16-.34,1,1,0,0,1,.15-1.2c4.78-4.42,8.87-7.93,12.24-10.58q15.93-12.48,31.56-25.17a.51.51,0,0,0,.08-.66l-.24-.25c0-.08-.15-.08-.23,0q-11.76,8-25.51,17.67a40.57,40.57,0,0,1-7.83,4.28,0,0,0,0,1,0,0s0,0,0,0l2.61-1.78.09-.05c9.5-8.12,15-12.87,16.67-14.27a202.06,202.06,0,0,1,16.87-13.28c8-5.48,16.2-10.75,23.9-16.7a.36.36,0,0,0,.09-.49.44.44,0,0,0-.51-.14,264.94,264.94,0,0,0-26.68,14.82q-14.88,9.51-34.56,24.7a.17.17,0,0,1-.25,0,.22.22,0,0,1,0-.32c10.33-11.05,21.2-21.56,33.41-30.13a.31.31,0,0,0,.11-.4.39.39,0,0,0-.39-.14c-6.11,1.83-13,7.44-18.42,11.66q-4.72,3.73-30.89,25.65a14.7,14.7,0,0,1-3.52,2,.7.7,0,0,1-.87-1,128,128,0,0,1,29.25-35.34.23.23,0,0,0,0-.34.27.27,0,0,0-.35-.11,38.82,38.82,0,0,0-8.83,5.95,181.17,181.17,0,0,0-23.46,24.49s0,0,0,0,0,0,0-.06a97,97,0,0,1,21.69-32.14.45.45,0,0,0,0-.59l-.26-.2a.19.19,0,0,0-.28,0c-7.09,5.74-11.75,10.08-14,13-4.3,5.43-7.91,9.92-10.78,13.42-.09.09-.26,0-.22-.16a50.77,50.77,0,0,1,8.66-15.52.21.21,0,0,0-.09-.32l-.89-.48s-.05,0-.05,0l-14.49,18.1a1,1,0,0,1-1.71-.88,8,8,0,0,1,.54-1.57,58.87,58.87,0,0,1,27.82-26.85.16.16,0,0,0,.1-.21c0-.11-.13-.17-.2-.14a28.9,28.9,0,0,0-10.6,4.69,129.1,129.1,0,0,0-21.48,20,.22.22,0,0,1-.3,0,.19.19,0,0,1-.07-.26l5.34-9.51-5.58,6.29c-.08.11-.23.15-.3.07l0,0a.2.2,0,0,1-.06-.31l7.23-10.48C1090.74,294.66,1112.68,287.52,1131.59,286.44Zm-167.95,6.61A50.05,50.05,0,0,1,958.91,278q-1.75-11.62-4.61-24.2a.28.28,0,0,0-.45-.16l-.33.23,0,0a205.52,205.52,0,0,1,2.84,31,.26.26,0,0,1-.2.22.22.22,0,0,1-.24-.14,81.4,81.4,0,0,1-4-14.54,219.64,219.64,0,0,1-2.81-50.48c0-.09-.06-.17-.17-.17a.23.23,0,0,0-.17,0s-.06.05-.06.09a100.51,100.51,0,0,0-2.23,14.46,218.09,218.09,0,0,0-.14,35.65q1.38,15.76,1.42,27.53c0,.11-.1.16-.19.18a.07.07,0,0,1-.1-.06q-.3-1.2-5.25-30.33a142.62,142.62,0,0,0-3.06-14.09.26.26,0,0,0-.48,0,3.56,3.56,0,0,0-.19,2q2.16,15,2.82,29.17a.18.18,0,0,1-.16.19c-.07,0-.17-.07-.18-.12a124.13,124.13,0,0,1-4-22.71.28.28,0,0,0-.29-.27l0,0a.3.3,0,0,0-.33.31,77,77,0,0,0,3,22.82,110.87,110.87,0,0,1,3.61,21.3.21.21,0,0,1-.38.14,7.85,7.85,0,0,1-1.22-2.15,284.83,284.83,0,0,1-8.58-30.57c0-.09-.15-.15-.26-.15s-.16.1-.16.22l.59,14.92a1.28,1.28,0,0,1,0,.43,11.92,11.92,0,0,0-.28,3.37c.3,3,.5,5.6.6,7.85a.44.44,0,0,1-.73.35,2.06,2.06,0,0,1-.74-1q-1.47-4.49-4.86-17.42a.21.21,0,0,0-.19-.11l0,.07a1,1,0,0,0-.11.58L929.21,304c0,.17,0,.38,0,.59v4.79a.49.49,0,0,1-.93.21,82.1,82.1,0,0,1-6.4-17.91.27.27,0,0,0-.53.06,40.85,40.85,0,0,0,.94,7.86c1,4.37,1.93,8.79,2.89,13.27a3.39,3.39,0,0,1,0,.55l-.38,4.27a.35.35,0,0,1-.68.09l-6.63-17.15a.53.53,0,0,0-.64-.32.55.55,0,0,0-.39.59l2.67,14.76a.4.4,0,0,1-.64.38,2.84,2.84,0,0,0-2.19-.62,1.08,1.08,0,0,1-1.18-.67,71.7,71.7,0,0,1-5.5-17.27q-4.63-30.71,12.36-57,6.08-9.43,14-21.65c10.21-15.77,16.6-32.64,10.68-51.11a.16.16,0,0,1,.28-.16c.31.33.75.76,1.34,1.31,2,2,4.68,6,7.83,12.07q.24.44,9.13,18.38a240,240,0,0,0,15.45,27.16q7.41,11,15.52,23.69c12.31,19.27,19.55,42.36,14.94,64.87a.51.51,0,0,1-.53.42.5.5,0,0,1-.49-.45l-3.89-29.42c0-.15-.18-.31-.33-.28a.35.35,0,0,0-.35.29l-1.91,21.85a.41.41,0,0,1-.72.24,7.4,7.4,0,0,1-1.33-4.1q-1.2-11-3.59-27.47a.35.35,0,0,0-.38-.33l-.4.05a.13.13,0,0,0-.14.12,94.55,94.55,0,0,1-2.11,25.18.45.45,0,0,1-.88,0l-.13-.65a.25.25,0,0,0-.28-.21.31.31,0,0,0-.27.25,1.13,1.13,0,0,1,0,.32.91.91,0,0,1-1,.65.93.93,0,0,1-.76-.89,108.73,108.73,0,0,0-7.31-41.17s-.05-.05-.09-.06a.12.12,0,0,0-.08.12,119.4,119.4,0,0,1,.09,30.28.09.09,0,0,1-.08.07s-.09,0-.09-.1c-.93-9-2.27-18-4-27-.47-2.37-2.06-7.17-4.73-14.46a.35.35,0,0,0-.65,0,2,2,0,0,0,.06,1.19,118,118,0,0,1,4.47,42.27,8,8,0,0,1-.37,2.57.5.5,0,0,1-.83-.1,23.09,23.09,0,0,1-2-4.23c-2.15-10.67-3.38-16.69-3.7-18a.3.3,0,0,0-.58,0,11.85,11.85,0,0,0-.64,3.49c0,6.22.68,13.34-.21,20.06a.31.31,0,0,1-.59,0A241.79,241.79,0,0,1,963.55,265a.47.47,0,0,0-.52-.39h0a.55.55,0,0,0-.45.61q1.61,14.44,2.33,22.35a13.45,13.45,0,0,1-.53,5.43A.38.38,0,0,1,963.64,293.05Zm-33.73,51.1q-.31-16.77,14.29-27.28a62,62,0,0,1,19.9-9.51c13-3.65,29.32-5,36.17,9.93,6,13.09,5.55,30.52,2.84,43.53q-3.4,16.47-8,32.14c-1.54,5.33-4.44,11.05-5.67,18-.91,4.87-1.63,9.76-2.11,14.7a41.84,41.84,0,0,1-1.73,8.87.31.31,0,0,1-.6-.09l.21-21.67L988.48,402a2.64,2.64,0,0,0-2.44-3.41,8.18,8.18,0,0,0-5.54,2.2.34.34,0,0,1-.57-.3l1.8-13.58a.63.63,0,0,0-.08-.4l-.36-.54a.38.38,0,0,0-.43.29c-1.7,8-2.37,12.54-3.82,17.27a12.83,12.83,0,0,0,.2,7.31,5.73,5.73,0,0,1-.63,3.22.28.28,0,0,1-.52,0,19.74,19.74,0,0,1,.3-3.14,3.36,3.36,0,0,0-.11-1.37c-.73-2.3-.38-4.54-.67-7.37q-.14-1.14-2.5-24.87a.3.3,0,0,0-.33-.27h-.32a.17.17,0,0,0-.12.15l1.6,26a.08.08,0,0,1-.08.07l-1.64-.22a.86.86,0,0,1-.71-.57,38,38,0,0,1-1.76-5.45c-1.38-7-2.59-14.17-3.57-21.37a.33.33,0,0,0-.35-.26l0,0a.23.23,0,0,0-.16.22,152.49,152.49,0,0,0,3.76,26.91.31.31,0,0,1-.5.32,3.36,3.36,0,0,0-3.3-.59.41.41,0,0,1-.55-.43l.22-1.64s0,0,0,0L958.81,378a.17.17,0,0,0-.11-.08l-.31.11a.3.3,0,0,0-.22.35c3.21,12.57,5.1,20.42,5.73,23.55a5.17,5.17,0,0,1-.41,3.1.25.25,0,0,1-.46,0l-7.28-17.45a.41.41,0,0,0-.2-.26l-.85-.4c-.11,0-.23.07-.18.16l7.57,19.64a3.63,3.63,0,0,1,.25,1.27,30.22,30.22,0,0,0,1.38,10,.8.8,0,0,1-.67,1.07l-2.42.15a1.19,1.19,0,0,1-1.15-.6,317.09,317.09,0,0,1-25.36-52.67A64.54,64.54,0,0,1,929.91,344.15ZM983,411.74a4.56,4.56,0,0,1-3.27-4.1q-.66-6.72,5.59-7.48a.61.61,0,0,1,.7.51.65.65,0,0,1-.21.6.46.46,0,0,0-.07.58,1.76,1.76,0,0,1,.37.94,35.81,35.81,0,0,1-2.29,8.58A.62.62,0,0,1,983,411.74ZM877.45,319.6a100.41,100.41,0,0,1-14.21-37c-1.1-6.58-2-14.63-2.87-24.16l0,0,.54-.21a.27.27,0,0,1,.35.18c1.29,4.61,2,7.16,2.18,7.66q.43,1.33,3.9,15a135.71,135.71,0,0,0,4.38,14.8A116.71,116.71,0,0,0,888.81,325q4.52,5.75,11.23,13.48c2.15,2.45,4,5.67,6.22,8.46a.5.5,0,0,1,0,.66l-.31.33a.08.08,0,0,1-.09,0l-9.31-8.78a.23.23,0,0,0-.34,0l-.27.26a.38.38,0,0,0,0,.56,113.41,113.41,0,0,1,8.52,8.46,10.13,10.13,0,0,1,1.85,2.94.52.52,0,0,1-.81.62A135.42,135.42,0,0,1,877.45,319.6Zm-25.32,118c-24.77.51-47.44-9.15-65.41-26.44-16.71-16.13-28.9-34.76-42.6-55a109.55,109.55,0,0,0-7.88-9.79,52.76,52.76,0,0,0-19.6-14.22.43.43,0,0,1,.06-.83,27.87,27.87,0,0,1,9-.81c11.31.68,19.39,3.12,33.3,7a141.26,141.26,0,0,0,34.41,5.25c1.19,0,8.41-.29,21.65-1,18.1-.94,32.45-.12,46.53,10.36a22.31,22.31,0,0,1,4.86,4.63.49.49,0,0,1-.31.76,9.19,9.19,0,0,1-3.42.33q-9.83-4.28-18.26-7.41a.37.37,0,0,0-.51.23l-.11.28s0,.1,0,.12L858,358.68a.24.24,0,0,1,0,.43,6.62,6.62,0,0,1-2.92.48q-7.23-1.93-8.64-2.75a45.81,45.81,0,0,0-7.81-3.79.25.25,0,0,0-.3.14.29.29,0,0,0,.08.36,79.77,79.77,0,0,1,15.89,13.1.22.22,0,0,1-.22.35,35,35,0,0,1-4.61-1.52q-2.79-1.28-19.41-9.68a.46.46,0,0,0-.63.19v0a.53.53,0,0,0,.22.75,140.19,140.19,0,0,1,21.55,14,.47.47,0,0,1,.12.55.49.49,0,0,1-.53.17L821.44,360.6c-.06,0-.12,0-.12,0l-.2.48a.29.29,0,0,0,.14.38l17.4,8.68a.73.73,0,0,1,0,1.3,3.36,3.36,0,0,1-.6-.09,56.12,56.12,0,0,1-12.4-3.58c-6.35-2.63-12.66-5.38-19-8.2a22.42,22.42,0,0,0-5.9-2,.31.31,0,0,0-.34.1.15.15,0,0,0,0,.21q13.26,6.52,27.66,15.39a74.29,74.29,0,0,1,11.4,8.64.41.41,0,0,1-.39.7q-5.67-1.64-16.38-5.94-29-11.76-66-29c-9.5-4.43-21-11.5-31.86-16.2a.24.24,0,0,0-.29.08l-.14.28a.16.16,0,0,0,0,.15q8.38,5.25,47.88,25.71,36.35,18.83,57.93,32l8.16,5s0,0,0,.06,0,0-.06,0l-36.93-12.8c-.11,0-.28,0-.3.14a.22.22,0,0,0,.12.32,230.43,230.43,0,0,1,25.91,15.83.14.14,0,0,1,0,.15.1.1,0,0,1-.11,0,187.8,187.8,0,0,1-50.39-22.77.29.29,0,0,0-.42.1l-.18.35a.18.18,0,0,0,.05.21c8.71,5.69,13.91,8.93,15.65,9.78q24.2,11.79,38.25,17.67a14.42,14.42,0,0,1,3.79,2.4.53.53,0,0,1-.33.93,14.91,14.91,0,0,1-3-.32q-11.86-2.41-22.38-5.61a.35.35,0,0,0-.42.22l-.11.31a.37.37,0,0,0,.19.48l27.89,12a.35.35,0,0,1-.14.67A51.07,51.07,0,0,1,825,413.65a157.93,157.93,0,0,1-24.74-7.72.28.28,0,0,0-.36.12v0a.18.18,0,0,0,.09.24,312,312,0,0,0,36.36,17.11.34.34,0,0,1,.18.34.3.3,0,0,1-.31.22,56.77,56.77,0,0,1-20.32-4.81c-4.16-1.94-6.87-3.5-9.57-3.49a.44.44,0,0,0-.25.79c4.67,3.18,8.61,5.85,13.76,8.07q8.2,3.6,15.57,7c5.17,2.42,11.61,3.94,16.81,5.58a.18.18,0,0,1,.14.23A.21.21,0,0,1,852.13,437.57Zm4.78-10.13c-6.15-3.51-10.39-7.65-11.09-14.89-1.83-18.7,9.86-35.78,23.88-47.88A34.22,34.22,0,0,1,890,356c12.41-1,19.92,7.3,27.8,16.54q19.15,22.51,38.6,48.62a2.79,2.79,0,0,1,0,3.29,3.41,3.41,0,0,0-.5,2.43.9.9,0,0,1-1.55.73L935.84,409a.44.44,0,0,0-.7.07l-.24.44a.35.35,0,0,0,0,.44l19.42,19.47a.14.14,0,0,1-.06.25,3.81,3.81,0,0,1-2.22-.19c-.43-.18-.75-.21-1,0a1.1,1.1,0,0,1-1.23,0l-27.71-22.81a.45.45,0,0,0-.61.05l-.33.43s0,.05,0,.05l27.88,23.93a.51.51,0,0,1,0,.78l-.37.38a.77.77,0,0,1-1.13,0,3.2,3.2,0,0,0-2-1.23.33.33,0,0,0-.19.62l1.07.64a.89.89,0,0,1,.46,1l-.08.41a.44.44,0,0,1-.62.25,16.61,16.61,0,0,0-4.34-1.59.38.38,0,0,0-.39.22.35.35,0,0,0,.16.4l3.15,1.83a.72.72,0,0,1,.25,1L945,436a.44.44,0,0,1-.58.17c-9.49-5.75-20.53-9.87-30-13.58a.33.33,0,0,0-.41.15v0a.29.29,0,0,0,.14.34q9.35,4.41,23.94,10.77a30.41,30.41,0,0,1,6.25,3.61.15.15,0,0,1-.12.26,202.9,202.9,0,0,1-28.35-7.28.48.48,0,0,0-.6.3l0,0a.57.57,0,0,0,.36.73A141.56,141.56,0,0,0,941,438.38,8.84,8.84,0,0,1,946.1,441a.35.35,0,0,1-.25.56c-18.33.49-29.65.48-33.91-.09C890.41,438.64,873.3,436.82,856.91,427.44ZM783,511.4c-10.21,5.53-21.76,8.62-32.71,6.65-3.72-.64-6.25-1.16-7.67-1.5a.36.36,0,0,1-.25-.39.33.33,0,0,1,.35-.29c13.49.46,26.39-2.36,37.55-10,10.43-7.16,24.85-18.95,39.82-25.68a42.82,42.82,0,0,1,11.14-3.45.65.65,0,0,1,.55,1.1,11.46,11.46,0,0,1-3.79,2.46,154.91,154.91,0,0,0-14.91,7.27,4,4,0,0,0-1.08.87c-.43.44-.82.84-1.19,1.19s-.68.53-.88.42-.45-.12-.55,0a.24.24,0,0,0,.26.38c6.72-2.58,11-4.88,16.18-4.77a.38.38,0,0,1,.21.69Q806.83,498.45,783,511.4Zm64.24.32a109.65,109.65,0,0,1-6.9-34.77q-.18-5,2.94-11.32c4.17-8.46,13.76-12.89,23-14.45a175.42,175.42,0,0,1,35.66-2.1q19.05.71,29.41.15a2.58,2.58,0,0,1,1.37.29,5.17,5.17,0,0,1,2.47,2.86,1.59,1.59,0,0,0,1.09,1L942,454.9a.5.5,0,0,1,.27.8,10.19,10.19,0,0,1-6.56,4.27c-8.59,1.8-17.6,4-27.07,6.65a.47.47,0,0,0-.32.56v0a.53.53,0,0,0,.66.4,236.72,236.72,0,0,1,29.4-5.74.49.49,0,0,1,.31.92,22.79,22.79,0,0,1-6,2.64q-11.24,2.76-21.79,6.35a.56.56,0,0,0-.37.74l.11.31c0,.05.05.06.09.06l23.17-6.18c.19-.07.37.16.29.35l-1,2.33a1.25,1.25,0,0,1-.81.69,123.67,123.67,0,0,0-14.1,5.16,46.63,46.63,0,0,0-8.36,4.3.21.21,0,0,0-.09.26.33.33,0,0,0,.47.15q9.93-4.33,21.92-8.33a1.17,1.17,0,0,1,1.57.5.47.47,0,0,0,.24.18l2.37.77a.41.41,0,0,1,.07.74,184.61,184.61,0,0,1-23,11.44.56.56,0,0,0-.29.71v0a.53.53,0,0,0,.7.32,112.07,112.07,0,0,0,22.38-9.82s.06-.06.1-.06l8.25-3.13c.07,0,.17.06.11.11-6.38,6.5-13,10.43-22.67,16.61a.51.51,0,0,0-.17.71v0a.51.51,0,0,0,.68.21A166.46,166.46,0,0,0,945,477a1.45,1.45,0,0,1,.72-.28l1.25-.11a.71.71,0,0,1,.64,1.15q-4.12,5.64-11,13.65c-.52.61-4.93,5.07-13.19,13.45a217.18,217.18,0,0,1-29.93,25c-8.23,5.61-18.23,11.09-27.75,7.22C857.33,533.68,850.6,520.94,847.21,511.72Zm88.52-42.92a27.83,27.83,0,0,1,15-4.72.29.29,0,0,1,.23.48,27,27,0,0,1-12.22,8.33,1.29,1.29,0,0,1-1.59-.67,3,3,0,0,0-1.21-1.46A1.14,1.14,0,0,1,935.73,468.8ZM878.52,625.53q-5.22,3.15-22,11a238.8,238.8,0,0,0-30,16.32,198,198,0,0,1-19.18,11.43,31.73,31.73,0,0,1-16.33,3.49.47.47,0,0,1-.46-.49v-.07a.51.51,0,0,1,.51-.51,14.14,14.14,0,0,0,7.15-2.36A89.66,89.66,0,0,0,830.59,630a28.93,28.93,0,0,0,2.22-5.12.29.29,0,0,0-.16-.36.28.28,0,0,0-.38.13c-8.83,15.18-18.94,28.14-34.22,37.38-3.31,2-5.82,3.19-7.51,3.49a1.33,1.33,0,0,0-.59.27l-1.07.89a.29.29,0,0,1-.28.09c-.32-.07-.51-.19-.58-.38a.22.22,0,0,1,.11-.28c25.18-18,24.06-45.35,24.6-72.78a82,82,0,0,1,7.73-32.9c.32-.67,2.59-4.41,6.84-11.18,5.76-9.25,14.34-17.06,22.42-23.06a.91.91,0,0,1,1.2.15l2.49,3a1,1,0,0,1-.12,1.43q-18,14.91-24.44,27.45a.26.26,0,0,0,0,.17l.13.69c0,.13.18.15.26,0a81.75,81.75,0,0,1,25.93-25.63,1.86,1.86,0,0,1,2.21,3,104.43,104.43,0,0,0-22.88,31A51.27,51.27,0,0,0,830,581a.27.27,0,0,0,.2.33.3.3,0,0,0,.36-.12c3.71-6.45,6.77-11.49,9.22-15.07a135.35,135.35,0,0,1,23-25.14,4.44,4.44,0,0,1,3.11-1.09h.28a.72.72,0,0,1,.51,1.17L848.94,563.5s0,0,0,.06l.53.45a.41.41,0,0,0,.59,0q9.18-10.2,18.71-19a12.58,12.58,0,0,1,5.09-3,.32.32,0,0,1,.36.5q-6.48,8.12-12.43,14.38a75.06,75.06,0,0,0-10.25,12.88,139,139,0,0,0-10.23,21,.1.1,0,0,0,.06.13l.55.4a.19.19,0,0,0,.3-.11,13.39,13.39,0,0,1,1.61-4.14,151.06,151.06,0,0,1,24.69-32.4c3.07-3,5.83-4.78,8.72-7.27a.09.09,0,0,1,.15,0,.1.1,0,0,1,0,.15c-1.53,1.92-3.81,4.28-5.49,6.62q-13.85,19.26-26.18,36a.34.34,0,0,0,.06.45l0,0a.47.47,0,0,0,.64-.09c6.12-7.32,11.65-15.22,18.69-23.26q13.25-15.16,19.29-21.92a.18.18,0,0,1,.21,0,.13.13,0,0,1,.05.17,128,128,0,0,1-10,17.57c-11.43,16.81-22.62,33.83-34.64,50.79a1.91,1.91,0,0,0-.35.84.41.41,0,0,0,.67.32,77,77,0,0,0,10.36-10.27q19.68-23,27.2-33,10-13.38,18.61-24.35a.2.2,0,0,1,.23,0,.19.19,0,0,1,0,.21,151.22,151.22,0,0,0-6,15.62,152.4,152.4,0,0,1-5.9,15.56,121,121,0,0,1-18.43,28.32.66.66,0,0,0,0,.91l0,0a.67.67,0,0,0,.87,0,66.31,66.31,0,0,0,13.2-16.64s2.11-4.29,6.25-12.82c2.88-6,5-11.05,8.33-17.15q7.35-13.38,14.18-25.29a.15.15,0,0,1,.2-.07v0a.21.21,0,0,1,.11.31q-6,13.14-13.8,31.35c-1.48,3.44-4.45,7.8-5.83,10.31-3.12,5.75-5.59,10.4-7.32,14a.24.24,0,0,0,.06.34.28.28,0,0,0,.34-.06L896.5,574.3s.08,0,.1,0a.07.07,0,0,1,0,.1A140.45,140.45,0,0,1,876,611a.25.25,0,0,0,.05.36.27.27,0,0,0,.36,0c4.81-4.26,11.23-12.46,15.63-19.54q7.56-12.22,13.81-23.15a.3.3,0,0,1,.35-.1.23.23,0,0,1,.12.32l-8.44,24.36a3.45,3.45,0,0,1-.33.63l-3.18,4.71a.3.3,0,0,0,0,.39l0,0a.26.26,0,0,0,.36,0,85.06,85.06,0,0,0,8-11.43c.76-1.37,2.72-4.93,5.82-10.66a.11.11,0,0,1,.21,0,.47.47,0,0,1-.08.34,1.28,1.28,0,0,0-.12.22,41.31,41.31,0,0,1-7.72,21,.49.49,0,0,0,.09.64h0a.49.49,0,0,0,.68-.1c3.31-4.31,6-7.94,8.08-10.91,1.07-1.51,1.43-3.5,2-4.43a.32.32,0,0,1,.59.12c.64,4.11.44,7.37-.56,9.77C905.74,607.94,891.78,617.61,878.52,625.53Zm78.81-10.76a142.69,142.69,0,0,1-16.09,39.14c-2.53,4.21-5.92,7.53-8.59,11.35a.22.22,0,0,1-.28.09l0,0a.3.3,0,0,1-.1-.34,143.89,143.89,0,0,0,10-25.65c3.59-12.07,5.48-21.93,9.67-32.35a.14.14,0,0,1,.16-.07.11.11,0,0,1,.09.14l-1.55,17a.14.14,0,0,0,.18.15l.06,0c.07,0,.15-.07.17-.12l7.29-21.84a2.58,2.58,0,0,1,1.23-1.42l.31-.14a.45.45,0,0,1,.64.53C959.65,605.2,958.58,609.71,957.33,614.77ZM987,579.38C983,592.24,972,598.1,959,596.31c-19.46-2.65-51.2-14.94-45.37-40.68a75.32,75.32,0,0,1,5.32-15A268.83,268.83,0,0,1,939.42,504c5.2-7.86,10.5-15.65,15.82-23.39,1.51-1.82,3.08-3.58,4.68-5.34,4.24-4.6,9.31-8.16,14-11.94a.29.29,0,0,1,.4,0,.31.31,0,0,1,0,.41l-13.81,17.51q-6.09,21.14-14.2,41.86s0,.08,0,.1l.66.51a.36.36,0,0,0,.53-.17l13.62-35.43a.23.23,0,0,1,.45.05,16.25,16.25,0,0,1-.37,7,220,220,0,0,0-5.8,25.5.32.32,0,0,0,.24.32s.07,0,.09,0a.1.1,0,0,0,0-.06l7.26-26.78a1.16,1.16,0,0,1,1.85-.57l.23.22a2.6,2.6,0,0,1,.58,2.6,239.94,239.94,0,0,0-6.94,28.32.19.19,0,0,0,.2.22h.36s.09-.06.09-.09L967,496.6a.67.67,0,0,1,1.27-.05,7.82,7.82,0,0,1,.42,3.37q-1.32,13.08-1.88,26.27a.48.48,0,0,0,.51.51h.32a.25.25,0,0,0,.2-.18l2.26-25.68a1.68,1.68,0,0,0-.27-1.1c-.85-1.29-.83-2.37,0-3.23a.45.45,0,0,1,.78.33,9,9,0,0,0,2.37,6.7,1.87,1.87,0,0,1,.5,1.07L976.58,528a.22.22,0,0,0,.32.14l.44-.27s.06,0,.06-.09l-1.8-23.14a.5.5,0,0,1,.45-.54l7-.42a.57.57,0,0,1,.59.43c4.37,19.65,7,39.71,6.15,59A64.8,64.8,0,0,1,987,579.38ZM970.41,494.9a.17.17,0,0,1,.27.08c.05.14,0,.3-.21.45s-.3,0-.28-.1A.88.88,0,0,1,970.41,494.9Zm27.71,40.45q-3-9.95-6.67-26.23a51.34,51.34,0,0,0-1.58-5.5,70.66,70.66,0,0,0-.34-16.76s0-.06,0-.1,0-.05,0,0l.35.52a1.55,1.55,0,0,1,.21.53,58.22,58.22,0,0,0,5.8,15.92A202.54,202.54,0,0,0,1009.29,533a.13.13,0,0,0,.18.08c.15-.07.21-.16.18-.28q-1.65-3.49-6.44-13.59a109.48,109.48,0,0,1-4.23-12.3.62.62,0,0,1,.59-.78,2.11,2.11,0,0,0,1.66-.72.72.72,0,0,1,1.13.19l10.86,21.51a.3.3,0,0,0,.17.13c-.42-1.65-.81-3.15-1.16-4.54a4.18,4.18,0,0,0-.33-.9l-8.52-17a1.59,1.59,0,0,1-.12-1,12.14,12.14,0,0,0-2.31-9.32s0-.07,0-.11l.38-.33a.31.31,0,0,1,.43.07c5.05,8.69,10.84,14.78,19.5,24.86a.19.19,0,0,0,.33-.16,4.92,4.92,0,0,0-1-2.09c-1.18-1.6-5.29-6.56-12.31-14.93a37.25,37.25,0,0,1-3-4.25c-.94-1.5-1.81-3-2.65-4.53a142.09,142.09,0,0,1-11-22.25.25.25,0,0,0-.29-.16l0,0c-.1,0-.14.09-.1.17a67.79,67.79,0,0,0,6.09,18,33.92,33.92,0,0,1,3.73,14.05,1.5,1.5,0,0,1-2.45,1.17,8.26,8.26,0,0,1-1.75-2.75q-1.23-2.9-5.08-14.18-2.12-6.22-3.15-18.66a1,1,0,0,0-.82-.91v0a.67.67,0,0,0-.8.67c0,4.57.17,9.69.65,15.38a53.45,53.45,0,0,1-1.16,17,.84.84,0,0,1-1.59.14,7.19,7.19,0,0,1-.38-2.83q.18-13.06,0-25.27c0-.06,0-.1-.07-.08a.05.05,0,0,0-.08,0c-2,7.84-1.91,15.29-2.6,26.8-.18,3.57-3,3.64-6,3.18a1.84,1.84,0,0,1-1.31-2.75c2.91-4.93,4.13-9.63,4.71-16.17a125.07,125.07,0,0,1,3.23-18.5.53.53,0,0,0-.36-.62l-.32-.1a.42.42,0,0,0-.42.21,263.22,263.22,0,0,0-9.76,24.67,10,10,0,0,1-4,5.52.89.89,0,0,1-1-.11q-4.92-4.71-1.85-10,7.79-13.56,14.08-23.8a.48.48,0,0,0-.68-.64,12.5,12.5,0,0,1-4.94,2.37,4,4,0,0,0-1.14.46l-20.21,12.13a1.74,1.74,0,0,1-2.64-1.4l-.07-.78a5.26,5.26,0,0,1,2.3-4.68,115.57,115.57,0,0,1,20.27-10.62,11.69,11.69,0,0,0,3.47-2.16.54.54,0,0,0-.44-.94,19.67,19.67,0,0,0-4.9,1.41c-4.7,2-7.49,3.05-8.44,3.29q-6.36,1.47-15,2.81a2.7,2.7,0,0,1-3-3.49l0-.06a7.58,7.58,0,0,1,5.23-5,78.5,78.5,0,0,1,17-2.64l0-.68a111.83,111.83,0,0,0-18.92,1.05,20.6,20.6,0,0,1-9.62-.47c-1.78-.64-2.7-2.48-1.87-3.81a3.78,3.78,0,0,1,3.45-1.74c7.25-.15,11.22-.22,11.86-.2a11.75,11.75,0,0,1,3.1.46l17.88,5.22a3,3,0,0,0,1.78,0l.32-.09a.41.41,0,0,0,0-.73l-24.84-11.61a2.17,2.17,0,0,1-.47-3.62l1.62-1.34a3.81,3.81,0,0,1,4.8-.08c8.08,6.35,11.71,9.16,18.47,12.35a.51.51,0,0,0,.62-.2.46.46,0,0,0-.1-.61l-16-13.22a1,1,0,0,1-.34-.75v-.37a.5.5,0,0,1,.79-.37l15.4,10.55a.42.42,0,0,0,.62-.54,9.2,9.2,0,0,0-3-3.66c-5-3.61-8.3-6.23-9.74-7.84-2.26-2.52-2-5,.84-7.37a3.23,3.23,0,0,1,4-.13,8.54,8.54,0,0,1,2.11,2.91c2.49,5,5.08,9.69,7.73,14.15a.64.64,0,0,0,.84.27.67.67,0,0,0,.35-.84l-5.87-15.16a2.36,2.36,0,0,0-.54-.85,20.26,20.26,0,0,1-5.47-14.79,2.37,2.37,0,0,1,2-2.25l1.1-.16a1.5,1.5,0,0,1,1.7,1.51c0,.26.44,4,1.35,11.09a21.11,21.11,0,0,0,2,6.41l-1.84-17.78a.21.21,0,0,1,.16-.22l.43-.08a.5.5,0,0,1,.54.34c.78,2.7,1.34,7.19,1.71,13.47a43.72,43.72,0,0,0,6.22,20,.29.29,0,0,0,.53-.13V437a2.24,2.24,0,0,0-.07-.51,74.37,74.37,0,0,1-3.42-20.94,1.63,1.63,0,0,1,2.31-1.51l.41.2a4.23,4.23,0,0,1,2.43,3.83c-.09,7.51-.1,11.58,1.73,17.51a.76.76,0,0,1,0,.43l-.13,3.68a.7.7,0,0,0,.56.67h0a.63.63,0,0,0,.66-.51q.75-3.51,3.37-15.69c.47-2.19.51-5.77.17-10.72a.37.37,0,0,1,.28-.37l.38-.07a.37.37,0,0,1,.11.05,33.75,33.75,0,0,1,1.08,10.73A89.55,89.55,0,0,1,989,438.57c.57-1.3,1.43-2.18,2-3.86A76.68,76.68,0,0,0,994.27,417c.19-2.84,1.5-6.89,3.89-12.17a2.13,2.13,0,0,1,3-.95l.13.1a2.58,2.58,0,0,1,1,3.26,76.57,76.57,0,0,0-5.56,16.09,109.76,109.76,0,0,1-3.27,13.34.32.32,0,0,0,.14.35A.33.33,0,0,0,994,437s0-.07.06-.09a62.82,62.82,0,0,0,4.07-10c2.12-6.93,4.05-12.83,5.69-17.67a1.1,1.1,0,0,1,1.88-.33l.38.48a3,3,0,0,1,.63,2.7,87.69,87.69,0,0,1-9.84,24.27,9.13,9.13,0,0,1-1.63,2.19,23.65,23.65,0,0,0-2.06,2,.64.64,0,0,0,.84.89c1.51-.84,2.43-1.7,2.7-2.61a7.93,7.93,0,0,1,1.81-3.1,44.36,44.36,0,0,0,9.94-17.7c.81-2.63,1.88-4.18,2.57-6.26a.23.23,0,0,1,.42,0l.16.29a.54.54,0,0,1,0,.45l-1.87,6a.32.32,0,0,0,.54.3,17.18,17.18,0,0,0,3.38-5.48,1,1,0,0,1,1.52-.48l1.74,1.19a1.35,1.35,0,0,1,.56,1.45l-1.07,4.51a1.56,1.56,0,0,1-.2.52l-6.74,9.81a.41.41,0,0,1-.73-.19v-.12a.38.38,0,0,1,.05-.37l5.33-7.68a.45.45,0,0,0,0-.55l-.23-.29a.3.3,0,0,0-.49,0,206.57,206.57,0,0,1-14,17.16.3.3,0,0,0,0,.42.3.3,0,0,0,.39,0l8.51-7.33a.71.71,0,0,1,.21-.13,11.47,11.47,0,0,0,4.49-3.37q3.93-4.68,7.51-9.29a114.86,114.86,0,0,1,13.31-17.61.34.34,0,0,0,.09-.34.45.45,0,0,0-.31-.37.24.24,0,0,0-.29.05L1022.56,412a3.69,3.69,0,0,0-.48.66,31.5,31.5,0,0,1-3.8,5.69.3.3,0,0,1-.5-.3,12,12,0,0,1,2.8-4.42,1.28,1.28,0,0,0,.29-1.48l-.17-.38a.75.75,0,0,1,.61-1,1.84,1.84,0,0,1,.53.13.41.41,0,0,0,.57-.36c0-.24-.18-.59-.49-.56a3.36,3.36,0,0,1-2-.69.56.56,0,0,0-.89.5,6,6,0,0,1-.15,2.41.78.78,0,0,1-1,.54l-2.5-.68a.38.38,0,0,1-.17-.65c1.13-1.1,2.39-1.74,3.14-2.73q4.9-6.47,9.74-13a.39.39,0,0,0-.07-.51l-.28-.21c-.07-.08-.22-.05-.3,0l-12.79,15.52a1,1,0,0,1-1.77-.56l-.07-.93a4.11,4.11,0,0,1,.52-2.21l8-13.72a.18.18,0,0,0-.05-.25.19.19,0,0,0-.26,0,141.2,141.2,0,0,0-9.13,12.29,17.43,17.43,0,0,0-2,3.71,3.53,3.53,0,0,0-.1.91,10.3,10.3,0,0,1-1.43,5.14.34.34,0,0,1-.63-.21l.71-5.2a1.49,1.49,0,0,0-.53-1.34l-.38-.29a.63.63,0,0,1-.19-.63l2.28-8.4a.1.1,0,0,0,0-.13c-.06,0-.15,0-.17,0a22.94,22.94,0,0,0-3,6.68.35.35,0,0,1-.64.13,8.7,8.7,0,0,0-5.52-3.46.69.69,0,0,1-.51-.9c2.36-7,6.37-13.71,8.67-19.71q3.27-8.38,10.62-22.81a108.88,108.88,0,0,1,11.53-18.11c8.08-9.7,20.66-17.49,32.84-11.34a55.81,55.81,0,0,1,13.47,9A127.75,127.75,0,0,1,1097.4,362c4.93,7.4,8,14.82,2.54,22.78a40.82,40.82,0,0,1-9.6,10.14A333.82,333.82,0,0,1,1033.77,428a2.15,2.15,0,0,1-2.89-1.13,3.85,3.85,0,0,1,1-4.82,100.07,100.07,0,0,0,7.68-7.21.25.25,0,0,0,0-.34.25.25,0,0,0-.32,0,78.23,78.23,0,0,0-11.65,9.25.86.86,0,0,1-1.42-.53l0-.33a3.33,3.33,0,0,1,.78-2.59l10.56-12.12a.28.28,0,0,0,0-.32l-.14-.31a.34.34,0,0,0-.52-.09l-11.46,11.45a.76.76,0,0,1-.91.12,3.11,3.11,0,0,0-1.57-.46c2.2,2.88,1.12,5.94-3.28,9.19a216.25,216.25,0,0,0-17.29,13.93s0,.07,0,.13l.39.65a.19.19,0,0,0,.29.07,75.34,75.34,0,0,1,21.68-12.79,4.28,4.28,0,0,0,2-1.52.66.66,0,0,0-.65-1l-2.28.42a.37.37,0,0,1-.35-.58,5.59,5.59,0,0,1,5.4-2.62,1.09,1.09,0,0,1,.85,1.54,17.87,17.87,0,0,1-5.41,6.65c2,.16,3.47-1.06,4.26-3.63a.9.9,0,0,1,1.72,0,3.56,3.56,0,0,1,.1,1.67,1.39,1.39,0,0,1-.69.94l-10.18,5.68-1.21.69q-6.63,4-13.63,7.57a22.68,22.68,0,0,0-3.87,2.43.4.4,0,0,0-.07.47.37.37,0,0,0,.43.14,198,198,0,0,0,30.78-14.74,1,1,0,0,1,1.42.49l1.11,2.91a1.27,1.27,0,0,1-.79,1.69q-3.08,1-15.76,5.77a71.84,71.84,0,0,0-13.78,6.83.33.33,0,0,0-.12.37l.14.27,0,0c5.11-1.92,8.54-4,13.6-5.46,2.09-.58,4.34-1.3,6.8-2.18a.31.31,0,0,1,.4.42,4,4,0,0,0-.38,3.1.79.79,0,0,1-.6,1.12,125.54,125.54,0,0,0-14.44,2.85.41.41,0,0,0-.28.4.39.39,0,0,0,.41.32l23.36-1.46a.3.3,0,0,1,.17.57l-4.75,2.78,4.5-1.37a9,9,0,0,1,2.67-.5q1,0,8.3.22a77.63,77.63,0,0,0,16.78-1.49.25.25,0,0,0,.21-.31c0-.19-.08-.29-.14-.27a213.87,213.87,0,0,1-24,.05.33.33,0,0,1-.21-.57l1.42-1.44a3,3,0,0,1,1.29-.7l19.25-3.88a.19.19,0,0,0,.14-.28l-.45-.75c0-.06-.05-.06-.09-.06l-17.23,3.3a1.64,1.64,0,0,1-1.93-1.26,7.23,7.23,0,0,1,0-4,.55.55,0,0,0-.42-.71,3.21,3.21,0,0,1-1.86-1.17,1,1,0,0,1,.48-1.59c17.42-5.57,31.57-11.14,46.22-15.72a59.21,59.21,0,0,1,19.45-2.93c10.74.33,18,6.69,22.82,16.79,1.35,2.79,2.23,7.16,2.59,13.11.44,6.9.7,12.63.8,17.1.25,10.19-.22,19.63-5.67,28.08-10.69,16.62-32.07,11.9-47.26,6.85q-14.31-4.77-31.3-12a103.14,103.14,0,0,1-12.25-6.23c-.19-.12-.11-.38.1-.35a191.68,191.68,0,0,1,31.45,7.74,127,127,0,0,0,16.24,3.73.28.28,0,0,0,.33-.23.35.35,0,0,0-.09-.29.23.23,0,0,0-.11-.08c-16.4-4.76-25.09-7.9-41.26-12a144.09,144.09,0,0,1-19.6-6.5.41.41,0,0,1,0-.74,3.66,3.66,0,0,1,2.78-.2,1.39,1.39,0,0,0,1.18-.15,4.07,4.07,0,0,1,1.69-.34,59.86,59.86,0,0,1,16.19.34c4.63.88,8.78,1.71,12.43,2.52a.31.31,0,0,0,.35-.44l-.14-.27a.35.35,0,0,0-.18-.16l-13.46-3.46a.67.67,0,0,0-.28,0,30.4,30.4,0,0,1-7.55-.41,3.19,3.19,0,0,0-1.19,0,28.09,28.09,0,0,1-7.76.23.29.29,0,0,1-.12-.51,4.27,4.27,0,0,1,2.15,0,2.63,2.63,0,0,0,.74,0l9.43-1.87a1.5,1.5,0,0,1,.81.08l.94.37a.49.49,0,0,0,.58-.74l-.33-.27a.86.86,0,0,1-.15-1.29,2.48,2.48,0,0,1,2.61-.8.75.75,0,0,1,.55.81,5.32,5.32,0,0,1-1,2.61.39.39,0,0,0,0,.51l.22.23a.18.18,0,0,0,.24,0,3,3,0,0,0,1.11-2.33,1,1,0,0,1,1.15-.92l11.94,1.58a.27.27,0,0,0,.3-.31l0-.7a.2.2,0,0,0-.16-.18,50.74,50.74,0,0,1-13.95-2.89,3,3,0,0,1-1.16-.77,4.25,4.25,0,0,0-3-1.49.4.4,0,0,1-.26-.67c.37-.35,6.2-.22,7.71-.47a82.35,82.35,0,0,1,16.05-1,.4.4,0,0,0,.41-.42l0-.34c0-.1-.07-.15-.18-.16-5.78-.27-9.31-.4-10.55-.48a28.32,28.32,0,0,1-5-.57c-1.74-.41-5-.5-6.7-1.68a2.58,2.58,0,0,0-.88-.35l-9-1.64-20.64-1.07a1.54,1.54,0,0,0-1.25.55l-.17.24a.48.48,0,0,0,.31.8,72.6,72.6,0,0,1,19.43,4.29c2.72,1,5.17,1.07,7.52,1.93a13.79,13.79,0,0,1,4.48,3.22.48.48,0,0,1-.17.82,1.07,1.07,0,0,0-.79.89.69.69,0,0,1-.88.57l-.88-.23a.24.24,0,0,0-.23,0c-5.86,1.55-9.26-1.33-15.06-4.59a24,24,0,0,0-16.55-2.89.68.68,0,0,0-.37,1.12c4,4.39,7.93,6.38,15.22,10.44a1.13,1.13,0,0,1,.28,1.78l0,.07a2,2,0,0,1-2.26.4c-5.74-2.91-13.1-7.48-16.44-12.87a.56.56,0,0,0-.69-.23l-.42.18a.59.59,0,0,0-.33.82,16.76,16.76,0,0,0,6,7.62c4.49,2.91,8.57,5.77,12.29,8.61a.57.57,0,0,1,.11.85c-.59.77-.46,1.78.45,3-.06,0-.08,0,0,.08a1.43,1.43,0,0,0,.39.22,3.43,3.43,0,0,1,.3-2,.72.72,0,0,1,1-.26l17.84,9.88a309.58,309.58,0,0,1,38.49,24.94,54.47,54.47,0,0,1,10,10.37c5.49,7.21,4.77,17,.55,24.54a78.41,78.41,0,0,1-28.82,29.26c-19.17,11.53-35.18,4.84-46-14A140.07,140.07,0,0,1,998.12,535.35ZM955.61,431.22a1.2,1.2,0,0,1,.32.43.37.37,0,0,1-.54.47,1.22,1.22,0,0,1-.56-.72C954.74,431.08,955.24,431,955.61,431.22Zm55.67-20.68a.35.35,0,0,1-.59-.25,1.51,1.51,0,0,1,.55-1.24c.38-.33.62-.19.74.4C1012,409.66,1011.79,410,1011.28,410.54Zm20.65,20c-.32.23-.55.26-.73.1a.31.31,0,0,1,0-.41.79.79,0,0,1,.51-.19A.28.28,0,0,1,1031.93,430.51Zm-1.19,11.77c1.94-.7,4.56-1.73,6,.6a6.7,6.7,0,0,1,1.11,3.39,1.44,1.44,0,0,1-.51,1.1q-5.05,4.14-9.91,1.4a3,3,0,0,1-.15-4.91A13.93,13.93,0,0,1,1030.74,442.28Zm4.68,19.05a.16.16,0,0,1-.13,0,2.19,2.19,0,0,1-.26-.23,1.76,1.76,0,0,1-.53-.42s-.06,0-.1,0l-14.79-4a.31.31,0,0,1-.18-.31.29.29,0,0,1,.29-.2l14.73,2a.54.54,0,0,1,.39.81c-.76,1.14-.67,1.47.21,1a26.68,26.68,0,0,1,9.48-.34.32.32,0,0,1,0,.64Zm-20.76,1.93.52.24c5.15,2.41,8.85,5.37,8.27,6.65l0,.06a.17.17,0,0,1-.17.05l-18.94-8.8a.13.13,0,0,1-.07-.19l0,0C1004.84,460,1009.49,460.87,1014.66,463.26Zm4.54,7.4,2.58.91c.17,0,.16.29,0,.34a2.88,2.88,0,0,1-2.83-.71.32.32,0,0,1-.08-.4A.3.3,0,0,1,1019.2,470.66Zm129.6,207.88q-32.85-10-45.49-12.88c-11.84-2.63-23.52-5.64-35-8.94-24.43-7.09-44.2-20.24-57.73-42.43-6.64-10.93-12.3-25.33-11.19-37.78a.55.55,0,0,1,1.08-.1,118.24,118.24,0,0,0,14.43,32,.44.44,0,0,0,.56.13.46.46,0,0,0,.2-.52c-2.74-7.41-5.61-14.19-6.68-21.42a.17.17,0,0,1,.1-.2c.1,0,.19,0,.2.1,4.13,8.68,7.62,15.93,10.47,21.66a14.94,14.94,0,0,0,2.71,3.75.4.4,0,0,0,.66-.43c-.78-2.12-2.34-4.68-3.19-7.76-2-7.33-3.6-12-3.65-15.23a.2.2,0,0,1,.38-.1q8.62,15.27,14.11,25.23a32.64,32.64,0,0,0,3.3,4.88.38.38,0,0,0,.5.07.36.36,0,0,0,.15-.5,180.57,180.57,0,0,1-12-30.54.25.25,0,0,1,.39-.26,4,4,0,0,1,1.52,1.54A278.75,278.75,0,0,0,1041.35,618a.49.49,0,0,0,.73.12l.27-.22a.26.26,0,0,0,.05-.3,186.63,186.63,0,0,1-12.88-28.62.31.31,0,0,1,.41-.39,2.86,2.86,0,0,1,1.4,1.22,228.76,228.76,0,0,0,17.5,26.39,43.44,43.44,0,0,0,5.22,5.79.44.44,0,0,0,.49,0,.39.39,0,0,0,.07-.51,220.55,220.55,0,0,1-17.87-31.65.37.37,0,0,1,.15-.5.4.4,0,0,1,.54.07c5.31,6.55,8.08,10,8.41,10.44,4.77,6.82,13,13,18.32,19.77a.22.22,0,0,0,.3,0,.22.22,0,0,0,.06-.28,30.25,30.25,0,0,0-3.32-4.78c-6.13-7.59-11.08-16.37-15.43-25a.39.39,0,0,1,.12-.49.39.39,0,0,1,.51,0,74.41,74.41,0,0,1,6.55,7q9.83,12.78,19,23.51a.37.37,0,0,0,.54,0l.25-.2a.16.16,0,0,0,0-.13,283.07,283.07,0,0,1-20-33.19.65.65,0,0,1,.21-.82.62.62,0,0,1,.85.12q10.34,12.95,21.69,28.79a183.38,183.38,0,0,0,21.42,25,66.77,66.77,0,0,0,6.41,5.57.25.25,0,0,0,.4-.27,2.8,2.8,0,0,0-.58-1.2,328.9,328.9,0,0,1-31.17-46.2v0l-1.79-3.51a.25.25,0,0,1,.08-.3.27.27,0,0,1,.34,0L1090.52,617a.49.49,0,0,0,.64.05l.29-.27a.54.54,0,0,0,.11-.73q-6.7-10.49-18.09-29.47c-1.91-3.25-4.72-6.28-6.9-9.65a.53.53,0,0,1,.8-.67,73.64,73.64,0,0,1,7.09,7.75c3.45,4.26,8.89,11.14,16.39,20.64a.34.34,0,0,0,.47.07l0,0a.3.3,0,0,0,.08-.41,336.18,336.18,0,0,0-19.53-30.23.94.94,0,0,1,.13-1.3l.31-.25a.69.69,0,0,1,.93.05,194.05,194.05,0,0,1,21.12,24.56.37.37,0,0,0,.66-.32,22.58,22.58,0,0,0-2.81-6.14c-4.71-7.43-9.64-14.55-14.72-21.33-.44-.61-.53-1.11-.22-1.55a.49.49,0,0,1,.7-.11,100,100,0,0,1,20,20.17.41.41,0,0,0,.54.11.36.36,0,0,0,.15-.5,102.47,102.47,0,0,0-15.37-24.75.45.45,0,0,1,0-.62.49.49,0,0,1,.62-.07,29.26,29.26,0,0,1,7.78,7.73,3.94,3.94,0,0,0,.76.82l4.25,3.51a.23.23,0,0,0,.35-.26l-3.63-8.07a.41.41,0,0,1,.16-.52.39.39,0,0,1,.53.09,78.1,78.1,0,0,1,9,13.92.42.42,0,0,0,.53.22.45.45,0,0,0,.29-.52c-2.6-10.91-8.37-18.8-15.86-27.21a1.3,1.3,0,0,1-.18-1.43l2-3.92a.75.75,0,0,1,1.21-.19q17.06,18,21.7,43.75c2.9,16.26,4,26.5,7.49,40.19a96.28,96.28,0,0,0,22,41.21,9.91,9.91,0,0,0,2.58,2,.25.25,0,0,1,.08.33.23.23,0,0,1-.3.06,16,16,0,0,1-2.26-1.39c-5.6-4.91-11-8.74-15.53-13.77A244.38,244.38,0,0,1,1104,628.86s-.08,0-.09,0l-.37.16a.24.24,0,0,0-.12.33,194,194,0,0,0,21.69,30c5.17,6,12.5,12.22,18.8,15.38a17.88,17.88,0,0,1,5.1,3.44A.22.22,0,0,1,1148.8,678.54Z"/><path class="cls-2" d="M1136.36,377.06a63.13,63.13,0,0,0,9.57-15.95q7.6-18.25,9.55-22.38a129,129,0,0,1,20.62-30.92q9.66-10.85,10.52-11.88a87.74,87.74,0,0,0,14.68-25.42.41.41,0,0,0-.61-.5,86.24,86.24,0,0,1-40,14.13q-14.68,1.46-29.08,2.29c-18.92,1.08-40.85,8.23-53,23.33,1,.13,2.16-.36,3.62-1.46a.38.38,0,0,1,.52.06.79.79,0,0,1,.17.61c0,.07-.08.18-.23.3a69.25,69.25,0,0,0-5.37,4.94l-5.32,9.51a.22.22,0,0,0,.06.29.23.23,0,0,0,.29,0,129.13,129.13,0,0,1,21.49-20.05,28.8,28.8,0,0,1,10.58-4.7.2.2,0,0,1,.22.13.2.2,0,0,1-.1.23,58.71,58.71,0,0,0-27.82,26.84,9.93,9.93,0,0,0-.55,1.58,1,1,0,0,0,1.72.86l14.48-18.1s0,0,0,0l.91.47a.22.22,0,0,1,.07.33,51.47,51.47,0,0,0-8.65,15.52.14.14,0,0,0,.23.14q4.29-5.25,10.78-13.41,3.43-4.35,14-13a.21.21,0,0,1,.29,0l.24.2a.4.4,0,0,1,0,.58,97.43,97.43,0,0,0-21.68,32.16s0,.05,0,.05a0,0,0,0,0,.06,0,179.88,179.88,0,0,1,23.45-24.49,38.82,38.82,0,0,1,8.83-5.95.28.28,0,0,1,.35.09.29.29,0,0,1,0,.37A127.71,127.71,0,0,0,1092,339.17a.7.7,0,0,0,.87,1,14,14,0,0,0,3.51-2q26.17-21.9,30.9-25.62c5.4-4.25,12.32-9.85,18.43-11.68a.32.32,0,0,1,.37.15.31.31,0,0,1-.1.39c-12.21,8.59-23.07,19.08-33.4,30.13a.23.23,0,0,0,0,.32h0a.2.2,0,0,0,.26,0q19.66-15.19,34.55-24.69a256.42,256.42,0,0,1,26.7-14.83.37.37,0,0,1,.49.14.38.38,0,0,1-.09.5c-7.71,5.94-15.92,11.21-23.9,16.69A202.13,202.13,0,0,0,1133.77,323l-16.67,14.25a.3.3,0,0,1-.1.07l-2.61,1.77s0,0,0,.05,0,0,0,0a40.52,40.52,0,0,0,7.84-4.26q13.74-9.7,25.51-17.67a.17.17,0,0,1,.23,0l.21.25a.46.46,0,0,1-.06.65q-15.65,12.69-31.56,25.17-5,4-12.23,10.58a.94.94,0,0,0,1,1.55,96.85,96.85,0,0,0,15.06-8.41,329,329,0,0,0,26.38-19.89.26.26,0,0,1,.41.31,3.66,3.66,0,0,1-.67.85c-11.41,11-22.56,19.9-36.86,31.35a14.57,14.57,0,0,0-2.74,2.69.55.55,0,0,0,.7.81,127.4,127.4,0,0,0,20-12.77.34.34,0,0,1,.46,0l0,0a.29.29,0,0,1,0,.38,174.56,174.56,0,0,1-19.28,17.64.39.39,0,0,0-.06.55l.35.42a.54.54,0,0,0,.68.11,116.85,116.85,0,0,0,32.84-27.22.31.31,0,0,1,.45-.07.4.4,0,0,1,.12.55,77.13,77.13,0,0,1-11.46,13.94q-9.94,9.59-19.83,18.14a.25.25,0,0,0,0,.33.27.27,0,0,0,.33.1,111.62,111.62,0,0,0,31-22.6.21.21,0,0,1,.3,0,.22.22,0,0,1,.07.29,27.85,27.85,0,0,1-5.42,7.54c-9.58,9-20.26,20.14-32.24,28a.1.1,0,0,0,0,.12.09.09,0,0,0,.11,0,89.81,89.81,0,0,0,30-19.54.22.22,0,0,1,.28,0h0a.36.36,0,0,1,.07.47c-8,11.05-20.1,20-32.45,27.36a15,15,0,0,0-3.63,3,.18.18,0,0,0,.2.28C1113.38,395.37,1127.72,387.51,1136.36,377.06Zm52.92-93.54c-.25-.26,1.55-2.32,4-4.61s4.67-3.9,4.91-3.63-1.55,2.33-4,4.61S1189.52,283.79,1189.28,283.52Z"/><path class="cls-1" d="M1198.2,275.28c.25.26-1.55,2.33-4,4.6s-4.67,3.91-4.91,3.65,1.55-2.33,4-4.61,4.67-3.91,4.91-3.64Z"/><path class="cls-2" d="M1227.27,437.62C1216,457,1185.48,455.37,1166.57,452q-19.59-3.52-30.84-4.8s-.06-.05-.07-.07a.09.09,0,0,1,.07-.08,181.46,181.46,0,0,1,29.49.28.34.34,0,0,0,.37-.29l.05-.34a.13.13,0,0,0-.11-.13l-28.71-3.84a.37.37,0,0,1-.33-.35.39.39,0,0,1,.29-.38c9.78-2.1,21.69-.3,32.79,2.07,9.53,2,15.33,3.1,17.45,3.25,14.72,1,27.9-1.11,39.94-9.94a.21.21,0,0,1,.31.28Z"/><path class="cls-2" d="M1077.27,314.21l-5.56,6.31a.24.24,0,0,1-.32.06h0a.23.23,0,0,1-.07-.32l7.25-10.49c1,.13,2.16-.36,3.62-1.46a.38.38,0,0,1,.52.06.79.79,0,0,1,.17.61c0,.07-.08.18-.23.3a69.25,69.25,0,0,0-5.37,4.94Z"/><path class="cls-3" d="M1090.34,394.89a41.22,41.22,0,0,0,9.61-10.14c5.45-8,2.38-15.36-2.56-22.79a128,128,0,0,0-20.47-23.75,56.52,56.52,0,0,0-13.48-9c-12.17-6.14-24.76,1.63-32.83,11.35a107.33,107.33,0,0,0-11.53,18.1q-7.35,14.42-10.61,22.81c-2.32,6-6.32,12.78-8.68,19.72a.68.68,0,0,0,.52.89,8.71,8.71,0,0,1,5.51,3.47.35.35,0,0,0,.63-.14,23.21,23.21,0,0,1,3-6.69.14.14,0,0,1,.16-.05.12.12,0,0,1,.06.15l-2.28,8.4a.57.57,0,0,0,.19.6l.37.31a1.45,1.45,0,0,1,.53,1.34l-.7,5.2a.34.34,0,0,0,.63.22,10.08,10.08,0,0,0,1.43-5.16,4.68,4.68,0,0,1,.1-.9,16.93,16.93,0,0,1,2-3.72,133.9,133.9,0,0,1,9.14-12.28.18.18,0,0,1,.25,0,.19.19,0,0,1,.05.24l-8,13.72a4,4,0,0,0-.53,2.21l.06.94a1,1,0,0,0,1.77.57l12.8-15.51a.23.23,0,0,1,.31,0l.26.23a.35.35,0,0,1,.08.49q-4.86,6.48-9.75,13c-.74,1-2,1.64-3.13,2.72a.4.4,0,0,0,.18.66l2.51.68a.79.79,0,0,0,1-.54,6.42,6.42,0,0,0,.13-2.4.55.55,0,0,1,.89-.49,3.33,3.33,0,0,0,2,.66.54.54,0,0,1,.48.58.4.4,0,0,1-.56.36,1.37,1.37,0,0,0-.54-.14.74.74,0,0,0-.59,1l.17.37a1.33,1.33,0,0,1-.29,1.48,11.75,11.75,0,0,0-2.8,4.41.3.3,0,0,0,.49.32,32.09,32.09,0,0,0,3.8-5.69,3.43,3.43,0,0,1,.47-.66l10.77-11.84a.25.25,0,0,1,.28-.06.47.47,0,0,1,.32.38.34.34,0,0,1-.09.34,115.18,115.18,0,0,0-13.31,17.63c1.29-.22,2.11-.2,2.43.07a3.35,3.35,0,0,1,1.57.47.77.77,0,0,0,.92-.13l11.45-11.43a.32.32,0,0,1,.51.08l.15.32a.29.29,0,0,1,0,.31L1027,420.24a3.38,3.38,0,0,0-.79,2.62l0,.33a.85.85,0,0,0,1.41.52,80.47,80.47,0,0,1,11.66-9.27.26.26,0,0,1,.32.05.25.25,0,0,1,0,.33,94.64,94.64,0,0,1-7.68,7.2,3.85,3.85,0,0,0-1,4.83,2.15,2.15,0,0,0,2.88,1.13A333.63,333.63,0,0,0,1090.34,394.89Zm-69.56-24.7h0a.42.42,0,0,1-.18-.54,192,192,0,0,1,9.27-17.13,68,68,0,0,1,18.49-20.42s.06,0,.08,0l.51.4a.29.29,0,0,1,0,.44c-12.26,9.94-20.3,23.26-27.66,37.1A.36.36,0,0,1,1020.78,370.19Zm33.63,40.39,0-.05a.12.12,0,0,1,0-.17l29.71-19.5a.13.13,0,0,1,.17,0l0,.05c.46.7-5.79,5.63-14,11l-.28.19C1061.88,407.5,1054.88,411.28,1054.41,410.58Z"/><path class="cls-3" d="M1123.33,494.26c5.44-8.45,5.92-17.91,5.68-28.08-.11-4.5-.37-10.2-.81-17.11q-.56-8.91-2.59-13.11c-4.88-10.09-12.1-16.45-22.82-16.79a58.89,58.89,0,0,0-19.44,2.93c-14.66,4.58-28.81,10.17-46.23,15.72a1,1,0,0,0-.48,1.59,3.13,3.13,0,0,0,1.86,1.17.54.54,0,0,1,.41.72,7.38,7.38,0,0,0,0,4,1.65,1.65,0,0,0,1.92,1.28l17.23-3.31a.09.09,0,0,1,.1.05l.43.75a.2.2,0,0,1-.13.29l-19.26,3.88a2.74,2.74,0,0,0-1.28.7l-1.43,1.43a.34.34,0,0,0,.22.58,211.35,211.35,0,0,0,24-.07c.07,0,.11.09.15.28a.27.27,0,0,1-.22.32,78.94,78.94,0,0,1-16.78,1.5c-4.86-.18-7.62-.25-8.29-.24a9.78,9.78,0,0,0-2.68.51l-4.49,1.37c-.11,0-.25.24-.41.6l9,1.64a2.21,2.21,0,0,1,.88.37c1.74,1.18,5,1.25,6.7,1.66a25.48,25.48,0,0,0,5,.58l10.56.48a.16.16,0,0,1,.16.16l0,.35a.37.37,0,0,1-.4.39,83.72,83.72,0,0,0-16,1c-1.51.25-7.38.13-7.71.47a.4.4,0,0,0,.26.67,4.31,4.31,0,0,1,3,1.48,3,3,0,0,0,1.17.78,50.42,50.42,0,0,0,13.94,2.9.18.18,0,0,1,.17.17l0,.71a.29.29,0,0,1-.32.3l-11.93-1.59a1,1,0,0,0-1.16.94,3,3,0,0,1-1.08,2.32.23.23,0,0,1-.27,0l-.21-.23a.38.38,0,0,1,0-.52,5.27,5.27,0,0,0,1-2.63.71.71,0,0,0-.55-.78,2.49,2.49,0,0,0-2.61.78.87.87,0,0,0,.14,1.3,1.89,1.89,0,0,1,.34.27.49.49,0,0,1-.59.74l-.93-.36a1.36,1.36,0,0,0-.79-.09l-9.45,1.88a2.24,2.24,0,0,1-.73,0,4.24,4.24,0,0,0-2.14,0,.27.27,0,0,0,.1.5,28.2,28.2,0,0,0,7.76-.21,3.12,3.12,0,0,1,1.18,0,29.52,29.52,0,0,0,7.55.41,1,1,0,0,1,.3,0l13.46,3.48a.31.31,0,0,1,.17.15l.14.28a.31.31,0,0,1-.34.44q-5.5-1.22-12.44-2.54a60.29,60.29,0,0,0-16.19-.34,4.5,4.5,0,0,0-1.7.35,1.44,1.44,0,0,1-1.15.16,3.74,3.74,0,0,0-2.8.2.4.4,0,0,0,0,.72,141.05,141.05,0,0,0,19.61,6.5c16.18,4.07,24.86,7.21,41.25,12a.3.3,0,0,1,.21.38h0a.28.28,0,0,1-.32.22,127.72,127.72,0,0,1-16.24-3.75,192.81,192.81,0,0,0-31.45-7.72.19.19,0,0,0-.12.35,104.39,104.39,0,0,0,12.29,6.23q16.95,7.19,31.29,12C1091.25,506.15,1112.64,510.88,1123.33,494.26Zm-82.13-29.71a.53.53,0,0,1-.55-.43.54.54,0,0,1,.33-.61l1-.4a.43.43,0,0,1,.54.21.44.44,0,0,1-.17.56C1041.63,464.33,1041.24,464.54,1041.2,464.55Zm38-32.72a.32.32,0,0,1-.41-.16l-.14-.29a.08.08,0,0,1,0-.1c8.12-4.39,23.94-9.68,32.86-5.15a.28.28,0,0,1,.13.31.26.26,0,0,1-.29.16C1100.26,424.43,1089.16,428,1079.19,431.83Zm9.69,1.52a.43.43,0,0,1-.53-.62,3.18,3.18,0,0,1,.94-.5c2.26-1,6.23-2,11.88-3s9.71-1.44,12.17-1.3a3.08,3.08,0,0,1,1.05.14.42.42,0,0,1-.28.76q-1.38-.09-12.68,1.91C1093.91,432.12,1089.71,433,1088.88,433.35Zm19.65,1.58c-3.57.27-6.9.93-9.17.88a.27.27,0,0,1-.28-.24.31.31,0,0,1,.2-.32,42.71,42.71,0,0,1,18.44-1.42.29.29,0,0,1,0,.57C1115.49,434.78,1112.1,434.65,1108.53,434.93Z"/><path class="cls-1" d="M1101.43,430.78c-7.52,1.34-11.72,2.19-12.55,2.57a.43.43,0,0,1-.53-.62,3.18,3.18,0,0,1,.94-.5c2.26-1,6.23-2,11.88-3s9.71-1.44,12.17-1.3a3.08,3.08,0,0,1,1.05.14.42.42,0,0,1-.28.76q-1.38-.09-12.68,1.91Z"/><path class="cls-1" d="M1108.53,434.93c-3.57.27-6.9.93-9.17.88a.27.27,0,0,1-.28-.24.31.31,0,0,1,.2-.32,42.71,42.71,0,0,1,18.44-1.42.29.29,0,0,1,0,.57c-2.23.38-5.62.25-9.19.53Z"/><path class="cls-1" d="M1111.36,426.6c-11.1-2.17-22.2,1.36-32.17,5.23a.32.32,0,0,1-.41-.16l-.14-.29a.08.08,0,0,1,0-.1c8.12-4.39,23.94-9.68,32.86-5.15a.28.28,0,0,1,.13.31.26.26,0,0,1-.29.16Z"/><path class="cls-1" d="M1084.12,390.86a.13.13,0,0,1,.17,0l0,.05c.46.7-5.79,5.63-14,11l-.28.19c-8.18,5.37-15.18,9.15-15.65,8.45l0-.05a.12.12,0,0,1,0-.17l29.71-19.5Z"/><path class="cls-1" d="M1048.93,332.94c-12.26,9.94-20.3,23.26-27.66,37.1a.36.36,0,0,1-.49.15h0a.42.42,0,0,1-.18-.54,192,192,0,0,1,9.27-17.13,68,68,0,0,1,18.49-20.42s.06,0,.08,0l.51.4a.29.29,0,0,1,0,.44Z"/><path class="cls-2" d="M1011.25,315c4.62-22.51-2.63-45.62-15-64.86q-8.1-12.64-15.51-23.71a237.4,237.4,0,0,1-15.45-27.15q-8.9-17.94-9.13-18.39c-3.15-6-5.78-10-7.84-12.07-.57-.55-1-1-1.32-1.3a.17.17,0,0,0-.29.16c5.94,18.46-.47,35.34-10.7,51.11q-7.92,12.21-14,21.65-17,26.32-12.35,57c.71,4.72,2.55,10.47,5.48,17.25a1.12,1.12,0,0,0,1.2.67,2.84,2.84,0,0,1,2.2.62.4.4,0,0,0,.63-.39l-2.66-14.74a.55.55,0,0,1,.38-.61.54.54,0,0,1,.63.32l6.63,17.17a.36.36,0,0,0,.69-.1l.37-4.26a2.11,2.11,0,0,0,0-.56q-1.41-6.72-2.89-13.28a41.34,41.34,0,0,1-.94-7.84.27.27,0,0,1,.23-.28.26.26,0,0,1,.3.21,83.07,83.07,0,0,0,6.4,17.92.49.49,0,0,0,.93-.21v-4.8a6,6,0,0,0,0-.61l-2.62-21.56a1.09,1.09,0,0,1,.11-.59l0-.05a.17.17,0,0,1,.19.11q3.42,12.91,4.88,17.42a2.16,2.16,0,0,0,.73,1,.46.46,0,0,0,.74-.38c-.11-2.23-.31-4.83-.61-7.83a12.37,12.37,0,0,1,.28-3.38,1.27,1.27,0,0,0,0-.43l-.59-14.93a.19.19,0,0,1,.17-.21.22.22,0,0,1,.24.16,277.84,277.84,0,0,0,8.6,30.56,8.78,8.78,0,0,0,1.2,2.16.21.21,0,0,0,.38-.15,109.85,109.85,0,0,0-3.61-21.3,77.57,77.57,0,0,1-3-22.84.34.34,0,0,1,.33-.31h0a.3.3,0,0,1,.3.28,124.35,124.35,0,0,0,4,22.68.18.18,0,0,0,.2.13.17.17,0,0,0,.15-.18q-.67-14.17-2.82-29.18a3.5,3.5,0,0,1,.19-2,.25.25,0,0,1,.48,0q1.8,6.63,3.07,14.1,4.93,29.13,5.23,30.32c0,.05,0,.07.11.07a.2.2,0,0,0,.18-.19q0-11.76-1.41-27.54a217.94,217.94,0,0,1,.15-35.63,96,96,0,0,1,2.22-14.45.2.2,0,0,1,.23-.16h0a.17.17,0,0,1,.14.18,220.61,220.61,0,0,0,2.84,50.47,82.26,82.26,0,0,0,4,14.55.23.23,0,0,0,.44-.08,208.21,208.21,0,0,0-2.82-31v0l.32-.24a.29.29,0,0,1,.46.17q2.85,12.57,4.62,24.19A49.44,49.44,0,0,0,963.64,293a.38.38,0,0,0,.7,0,13.37,13.37,0,0,0,.54-5.45q-.74-7.9-2.35-22.35a.54.54,0,0,1,.47-.59h0a.46.46,0,0,1,.53.39,240.63,240.63,0,0,0,6.88,30.59.3.3,0,0,0,.59-.05c.89-6.7.16-13.83.21-20.06a11.2,11.2,0,0,1,.65-3.48.3.3,0,0,1,.58,0q.46,1.94,3.69,18a23.87,23.87,0,0,0,2,4.22.5.5,0,0,0,.84.09,8.12,8.12,0,0,0,.37-2.55,117.64,117.64,0,0,0-4.48-42.28,1.82,1.82,0,0,1,0-1.19.33.33,0,0,1,.62,0q4.05,10.92,4.75,14.46,2.65,13.51,4,27a.1.1,0,0,0,.09.09.11.11,0,0,0,.1-.08,120.8,120.8,0,0,0-.1-30.28c0-.05,0-.1.07-.1a.09.09,0,0,1,.12.06,109,109,0,0,1,7.3,41.16.87.87,0,0,0,.76.87.84.84,0,0,0,1-.63.9.9,0,0,0,0-.32.3.3,0,0,1,.27-.25.28.28,0,0,1,.28.22l.11.64a.46.46,0,0,0,.9,0A95.32,95.32,0,0,0,997.21,276a.14.14,0,0,1,.13-.15l.39,0a.37.37,0,0,1,.4.33q2.36,16.42,3.56,27.46a7.66,7.66,0,0,0,1.32,4.1.42.42,0,0,0,.73-.24l1.93-21.84a.31.31,0,0,1,.33-.3.32.32,0,0,1,.33.28l3.89,29.41a.53.53,0,0,0,.5.46A.53.53,0,0,0,1011.25,315Zm-68.56-63.5h0a.49.49,0,0,1,.53.43l.81,7.57a.48.48,0,0,1-.43.53h0a.47.47,0,0,1-.52-.42l-.81-7.57A.48.48,0,0,1,942.69,251.53Zm12.67-34.81a.14.14,0,0,1-.11-.15c.35-6.64.67-10.65.69-13.83s-.29-7.19-.59-13.84a.15.15,0,0,1,.13-.14.14.14,0,0,1,.15.11,62.1,62.1,0,0,1-.12,27.75A.15.15,0,0,1,955.36,216.72Zm10.19,10c-2.44-4.75-2.76-11.32-3.61-16.54q-.53-3.34-2.5-16.48a.16.16,0,0,1,.1-.17.17.17,0,0,1,.18.08c2.44,4.75,2.77,11.32,3.59,16.54q.56,3.34,2.52,16.48a.15.15,0,0,1-.1.17A.18.18,0,0,1,965.55,226.76Z"/><path class="cls-1" d="M963.31,210.19q.56,3.34,2.52,16.48a.15.15,0,0,1-.1.17.18.18,0,0,1-.18-.08c-2.44-4.75-2.76-11.32-3.61-16.54q-.53-3.34-2.5-16.48a.16.16,0,0,1,.1-.17.17.17,0,0,1,.18.08c2.44,4.75,2.77,11.32,3.59,16.54Z"/><path class="cls-1" d="M955.94,202.74c0-3.19-.29-7.19-.59-13.84a.15.15,0,0,1,.13-.14.14.14,0,0,1,.15.11,62.1,62.1,0,0,1-.12,27.75.15.15,0,0,1-.15.1.14.14,0,0,1-.11-.15c.35-6.64.67-10.65.69-13.83Z"/><path class="cls-3" d="M988.68,408.4a3.47,3.47,0,0,1-.16,1.37.91.91,0,0,0,.06.61.88.88,0,0,0,.85.58c1.23-6.94,4.12-12.67,5.67-18q4.6-15.71,8-32.15c2.7-13,3.16-30.44-2.86-43.54-6.84-14.92-23.15-13.57-36.17-9.92a62.66,62.66,0,0,0-19.88,9.5q-14.61,10.51-14.3,27.28a64.43,64.43,0,0,0,4.21,21.72,318,318,0,0,0,25.35,52.68,1.24,1.24,0,0,0,1.16.61L963,419a.79.79,0,0,0,.69-1.07,29.68,29.68,0,0,1-1.38-10,3.84,3.84,0,0,0-.25-1.29L954.52,387a.13.13,0,0,1,.17-.17l.86.4a.68.68,0,0,1,.22.26L963,405a.25.25,0,0,0,.46,0,5,5,0,0,0,.42-3.08q-.93-4.71-5.72-23.56a.29.29,0,0,1,.21-.35l.31-.09a.09.09,0,0,1,.1.06l6.5,22.16a.08.08,0,0,1,0,0l-.23,1.62a.41.41,0,0,0,.56.44,3.38,3.38,0,0,1,3.29.61.33.33,0,0,0,.51-.34,149.37,149.37,0,0,1-3.76-26.91.19.19,0,0,1,.16-.2h0a.33.33,0,0,1,.34.26q1.5,10.81,3.58,21.37a38.57,38.57,0,0,0,1.74,5.46.9.9,0,0,0,.72.58l1.64.22s.09,0,.08-.08l-1.6-26a.12.12,0,0,1,.12-.12l.33,0a.3.3,0,0,1,.33.27q2.36,23.71,2.48,24.87c.3,2.82-.05,5,.67,7.37a3.25,3.25,0,0,1,.12,1.38,24.35,24.35,0,0,0-.31,3.12.28.28,0,0,0,.52,0,5.81,5.81,0,0,0,.65-3.23,12.86,12.86,0,0,1-.21-7.29c1.45-4.73,2.1-9.24,3.83-17.28a.37.37,0,0,1,.43-.29l.34.54a.54.54,0,0,1,.09.4l-1.81,13.57a.36.36,0,0,0,.58.32,8.11,8.11,0,0,1,5.55-2.21,2.65,2.65,0,0,1,2.43,3.42l-3.27,10.75c1.44-.2,2.28-1.63,2.48-4.3a.5.5,0,0,1,1-.05Zm-40.63-80.73c.27.16-.28,1.56-1.19,3.14s-1.9,2.72-2.17,2.57.28-1.56,1.2-3.14S947.78,327.52,948.05,327.67Zm-8.34,30.27c-4.32-14.53-5.42-29.92,9.66-37.26a.22.22,0,0,1,.27.07.21.21,0,0,1,0,.26c-6,4.89-10,9.49-10.68,17.36a53.82,53.82,0,0,0,1.76,19.41.26.26,0,0,1-.11.28l-.18.12A.44.44,0,0,1,939.71,357.94Zm55.13-8.88-.36-.05a.37.37,0,0,1-.3-.37c.86-11.54,1-24.13-4.75-34.93a.27.27,0,0,1,.08-.34.3.3,0,0,1,.36,0c7.5,7.8,7,25.83,5.06,35.61C994.91,349.05,994.87,349.08,994.84,349.06Zm4.59,4.82a.15.15,0,0,1-.13-.15c.24-7.55.5-12.11.44-15.73s-.5-8.16-1-15.69a.16.16,0,0,1,.14-.16.14.14,0,0,1,.17.11,70.24,70.24,0,0,1,.56,31.51A.15.15,0,0,1,999.43,353.88Z"/><path class="cls-1" d="M1001.11,338a69.17,69.17,0,0,1-1.51,15.79.15.15,0,0,1-.3,0c.24-7.55.5-12.11.44-15.73s-.5-8.16-1-15.69a.16.16,0,0,1,.14-.16.14.14,0,0,1,.17.11,69.19,69.19,0,0,1,2.07,15.72Z"/><path class="cls-1" d="M989.43,313.71a.27.27,0,0,1,.08-.34.3.3,0,0,1,.36,0c7.5,7.8,7,25.83,5.06,35.61,0,0-.06.07-.09.05l-.36-.05a.37.37,0,0,1-.3-.37c.86-11.54,1-24.13-4.75-34.93Z"/><path class="cls-2" d="M943.6,260.05a.47.47,0,0,1-.52-.42l-.81-7.58a.47.47,0,0,1,.42-.52h0a.47.47,0,0,1,.52.42l.81,7.57a.48.48,0,0,1-.42.53Z"/><path class="cls-4" d="M1001,502.78a34.13,34.13,0,0,0-3.73-14.09,68,68,0,0,1-6.1-18,.16.16,0,0,1,.11-.18h0a.24.24,0,0,1,.31.14,141.65,141.65,0,0,0,11,22.26,1.7,1.7,0,0,1,1.15-1.94l0-.42a.44.44,0,0,1,.66-.44l2.48,1.39a2.91,2.91,0,0,1,1.09-.37,92.92,92.92,0,0,1-11.66-17.7,15.22,15.22,0,0,1-1.76-6.63.44.44,0,0,1,.69-.36,2.08,2.08,0,0,1,.77,2.1,1.21,1.21,0,0,0,.13.64,70.21,70.21,0,0,0,17.26,22c1.29-.73,2-1.22,2.06-1.47q.33-2.22-2.05-4.08a91.15,91.15,0,0,1-16.85-17.24.35.35,0,0,1,.51-.48l18.28,16.15a.76.76,0,0,0,.18.09,1.18,1.18,0,0,0,1.18-.29,3.19,3.19,0,0,1,.2-2.32.3.3,0,0,0,0-.08c-.91-1.22-1.05-2.23-.44-3a.61.61,0,0,0-.12-.86q-5.57-4.25-12.28-8.6a16.83,16.83,0,0,1-6-7.63.61.61,0,0,1,.35-.81l.42-.18a.57.57,0,0,1,.68.24c3.34,5.39,10.71,10,16.44,12.85a1.93,1.93,0,0,0,2.26-.39l0-.06a1.15,1.15,0,0,0-.28-1.79c-7.3-4.07-11.26-6.05-15.23-10.46a.67.67,0,0,1,.38-1.1,23.94,23.94,0,0,1,16.54,2.88c5.8,3.27,9.21,6.15,15.07,4.6a.26.26,0,0,1,.21,0l.9.25a.71.71,0,0,0,.88-.59,1,1,0,0,1,.77-.88.49.49,0,0,0,.19-.82,14,14,0,0,0-4.49-3.22c-2.35-.85-4.8-.9-7.52-1.92a72.32,72.32,0,0,0-19.43-4.31.49.49,0,0,1-.33-.79l.19-.24a1.56,1.56,0,0,1,1.26-.55L1028,455.2c.16-.36.3-.55.41-.6l4.75-2.77a.31.31,0,0,0-.17-.58l-23.39,1.45a.37.37,0,0,1-.11-.72,130.23,130.23,0,0,1,14.43-2.85.81.81,0,0,0,.63-1.11,3.79,3.79,0,0,1,.36-3.08.32.32,0,0,0-.39-.45c-2.47.88-4.73,1.61-6.8,2.19-5.08,1.44-8.49,3.54-13.61,5.45l0,0-.13-.28a.31.31,0,0,1,.11-.38,73.25,73.25,0,0,1,13.77-6.83q12.67-4.71,15.78-5.75a1.29,1.29,0,0,0,.78-1.69l-1.12-2.92a1,1,0,0,0-1.42-.5,198.33,198.33,0,0,1-30.76,14.75.38.38,0,0,1-.44-.15.35.35,0,0,1,.09-.46,23.63,23.63,0,0,1,3.87-2.43q7-3.53,13.61-7.58a4.4,4.4,0,0,0,1.23-.69,1,1,0,0,0,.39-.5.74.74,0,0,0-1.13-.84,36.35,36.35,0,0,1-10,5.32.24.24,0,0,1-.19-.45l15.74-8.15a18.19,18.19,0,0,0,5.42-6.68,1.08,1.08,0,0,0-.88-1.53,5.6,5.6,0,0,0-5.38,2.62.37.37,0,0,0,.36.58l2.27-.42a.65.65,0,0,1,.63,1,4.21,4.21,0,0,1-2,1.53,75.34,75.34,0,0,0-21.66,12.78.2.2,0,0,1-.31-.07l-.38-.66a.11.11,0,0,1,0-.13,217.4,217.4,0,0,1,17.27-13.92q6.6-4.89,3.29-9.2c-.32-.27-1.14-.29-2.43-.07Q1017,423,1013,427.71a11.59,11.59,0,0,1-4.48,3.38.63.63,0,0,0-.21.12l-8.53,7.35a.28.28,0,0,1-.38,0,.27.27,0,0,1,0-.39,206.21,206.21,0,0,0,14-17.17.32.32,0,0,1,.5,0l.25.29a.44.44,0,0,1,0,.54l-5.32,7.68a.42.42,0,0,0-.06.39l0,.11a.39.39,0,0,0,.71.18l6.73-9.8a1.34,1.34,0,0,0,.22-.52l1.07-4.51a1.39,1.39,0,0,0-.55-1.45l-1.75-1.19a1,1,0,0,0-1.52.48,17.11,17.11,0,0,1-3.37,5.48.32.32,0,0,1-.54-.31l1.87-5.95a.59.59,0,0,0,0-.45l-.15-.28a.23.23,0,0,0-.43,0c-.68,2.06-1.75,3.63-2.55,6.25a44.5,44.5,0,0,1-10,17.71,7.68,7.68,0,0,0-1.8,3.1c-.27.9-1.18,1.77-2.7,2.6a.63.63,0,0,1-.84-.89,20,20,0,0,1,2.06-2,9.63,9.63,0,0,0,1.62-2.2,87.69,87.69,0,0,0,9.86-24.26,3.12,3.12,0,0,0-.64-2.71l-.4-.48a1.09,1.09,0,0,0-1.86.35c-1.65,4.83-3.56,10.71-5.69,17.65a61,61,0,0,1-4.08,10.05.32.32,0,0,1-.41.15h0a.25.25,0,0,1-.14-.33,107.59,107.59,0,0,0,3.26-13.35,77.15,77.15,0,0,1,5.56-16.09,2.59,2.59,0,0,0-1-3.26l-.15-.09a2.1,2.1,0,0,0-3,.92c-2.4,5.29-3.7,9.34-3.9,12.19a76.86,76.86,0,0,1-3.33,17.71c-.54,1.68-1.4,2.57-2,3.86a90.6,90.6,0,0,0,2.33-14.77,33.2,33.2,0,0,0-1.09-10.73.09.09,0,0,0-.09,0l-.4.07a.31.31,0,0,0-.27.35c.35,5,.3,8.54-.17,10.73q-2.61,12.15-3.37,15.7a.62.62,0,0,1-.67.49h0a.69.69,0,0,1-.56-.69l.14-3.67a1,1,0,0,0-.06-.41c-1.82-5.94-1.8-10-1.73-17.52a4.21,4.21,0,0,0-2.43-3.84l-.4-.19a1.62,1.62,0,0,0-2.3,1.51,74,74,0,0,0,3.4,20.94,1.75,1.75,0,0,1,.08.51v1.86a.28.28,0,0,1-.52.14,43.38,43.38,0,0,1-6.23-20c-.36-6.28-.92-10.77-1.71-13.46a.48.48,0,0,0-.54-.34l-.43.08a.18.18,0,0,0-.15.2l1.82,17.77a.45.45,0,0,0,.06.12.25.25,0,0,1,0,.07,21.74,21.74,0,0,1-2.1-6.59c-.91-7.12-1.35-10.82-1.35-11.08a1.5,1.5,0,0,0-1.71-1.51l-1.09.15a2.37,2.37,0,0,0-2,2.26,20.18,20.18,0,0,0,5.48,14.8,2.32,2.32,0,0,1,.52.85l5.85,15.16a.65.65,0,0,1-1.17.57q-4-6.7-7.72-14.15a8.22,8.22,0,0,0-2.14-2.92,3.22,3.22,0,0,0-4,.14q-4.18,3.59-.82,7.35c1.45,1.63,4.69,4.23,9.73,7.84a9.38,9.38,0,0,1,3,3.67.43.43,0,0,1-.62.54L958.08,430a.5.5,0,0,0-.78.39l0,.38a1,1,0,0,0,.35.74l16,13.21a.48.48,0,0,1-.51.81c-6.77-3.17-10.4-6-18.49-12.33a3.78,3.78,0,0,0-4.78.07l-1.64,1.36a2.15,2.15,0,0,0,.49,3.6l24.84,11.61a.4.4,0,0,1,0,.72l-.31.1a3.3,3.3,0,0,1-1.79,0l-17.9-5.23a11.47,11.47,0,0,0-3.07-.46c-.66,0-4.61.05-11.86.2a3.72,3.72,0,0,0-3.45,1.75c-.84,1.31.07,3.16,1.86,3.79a20.58,20.58,0,0,0,9.62.49,109.74,109.74,0,0,1,18.91-1.06,2.51,2.51,0,0,1,1.34-.07.38.38,0,0,1,.06.71,2.11,2.11,0,0,1-1.41.05,76,76,0,0,0-17,2.64,7.55,7.55,0,0,0-5.23,5l0,.07a2.69,2.69,0,0,0,3,3.47q8.68-1.32,15-2.8a88.54,88.54,0,0,0,8.45-3.29,18.86,18.86,0,0,1,4.89-1.4.54.54,0,0,1,.45.93,11.79,11.79,0,0,1-3.48,2.15,116.55,116.55,0,0,0-20.27,10.63,5.3,5.3,0,0,0-2.29,4.69l.05.77a1.75,1.75,0,0,0,2.65,1.4L972,463a3.64,3.64,0,0,1,1.14-.46,12.89,12.89,0,0,0,4.94-2.36.47.47,0,0,1,.68.62q-6.32,10.23-14.07,23.8c-2,3.56-1.44,6.9,1.84,10a.86.86,0,0,0,1,.1,10.06,10.06,0,0,0,4.05-5.48,258,258,0,0,1,9.76-24.7.35.35,0,0,1,.4-.19l.32.09a.52.52,0,0,1,.36.63,124.46,124.46,0,0,0-3.21,18.5c-.59,6.54-1.81,11.24-4.73,16.16a1.85,1.85,0,0,0,1.31,2.76c3,.45,5.78.39,6-3.2.68-11.49.54-19,2.59-26.79a.08.08,0,0,1,.09,0,.06.06,0,0,1,.06.07q.15,12.22,0,25.3a7.17,7.17,0,0,0,.4,2.82.84.84,0,0,0,1.58-.14,53.21,53.21,0,0,0,1.16-17c-.47-5.69-.68-10.81-.67-15.37a.68.68,0,0,1,.82-.66h0a1,1,0,0,1,.8.91q1,12.44,3.16,18.67,3.81,11.28,5.09,14.17a7.82,7.82,0,0,0,1.74,2.75A1.49,1.49,0,0,0,1001,502.78Zm-32.7-47.13c-8.24,1-15.66,1.73-22.53,4.76a.39.39,0,0,1-.53-.48c.73-2.3,2.15-2.39,4.12-3A45.64,45.64,0,0,1,968.33,455a.33.33,0,0,1,0,.66ZM983,450.17l-.06,0c-.68-.33-.81-1.47-.29-2.51l.59-1.18c.53-1,1.51-1.6,2.19-1.26l.06,0a.16.16,0,0,1,.08.23l-2.33,4.65A.17.17,0,0,1,983,450.17Zm2.75,5.52,0,0a.34.34,0,0,1,0-.5,24.84,24.84,0,0,0,4.56-7.52.29.29,0,0,1,.54,0,1.91,1.91,0,0,1-.26,1.88c-2.05,2.89-3.41,4.9-4.06,6.05A.46.46,0,0,1,985.7,455.69Zm11.16-3.62c.28.29-.17,1.18-1,2s-1.73,1.2-2,.91.16-1.17,1-2S996.58,451.78,996.86,452.07Zm-9,6.24a.52.52,0,0,1-.18-.95,10.88,10.88,0,0,1,2.69-.52.31.31,0,0,1,.28.51A2.72,2.72,0,0,1,987.88,458.31Z"/><path class="cls-1" d="M1031.26,430.2a.86.86,0,0,1,.52-.19.27.27,0,0,1,.15.49c-.32.25-.55.28-.72.11a.28.28,0,0,1,0-.41Z"/><path class="cls-4" d="M1018.25,437.89c.94-.38,1.48-.78,1.62-1.19a.74.74,0,0,0-1.13-.84,36.35,36.35,0,0,1-10,5.32.24.24,0,0,1-.19-.45l15.74-8.15q3.09.21,4.27-3.66a.9.9,0,0,1,1.71,0,3.44,3.44,0,0,1,.09,1.67,1.39,1.39,0,0,1-.68,1l-11.39,6.35Z"/><path class="cls-3" d="M1056.65,578.61a78.81,78.81,0,0,0,28.83-29.29c4.21-7.53,5-17.32-.55-24.53a54.4,54.4,0,0,0-10-10.36,309.57,309.57,0,0,0-38.49-24.95l-17.85-9.88a.73.73,0,0,0-1,.27,3.29,3.29,0,0,0-.3,1.94,3.84,3.84,0,0,1-.34,2.34c0,1.82,0,3.59-.05,5.29a.81.81,0,0,1-.87.87c-.31,0-.51-.17-.58-.53-.08.25-.77.74-2.06,1.47a11.15,11.15,0,0,1,10.22,5.61.22.22,0,0,1-.05.28.2.2,0,0,1-.28,0c-2.11-2-5.62-5.14-8.34-4.37a.33.33,0,0,0-.06.62,6.66,6.66,0,0,1,2.77,2.72.83.83,0,0,0,.2.22l5.9,5.07a.15.15,0,0,1,0,.22l-.18.19c-.06.05-.13.07-.18,0l-9.41-7.39a3.41,3.41,0,0,0-1.33-.67,9.76,9.76,0,0,1-4.7-2.6,2.91,2.91,0,0,0-1.09.37,21.65,21.65,0,0,0,4.29,5.58q6.78,6,13.49,12.07a.23.23,0,0,1-.3.35q-4.8-4-14.51-11.72a50.17,50.17,0,0,1-6.06-6.81,1.7,1.7,0,0,0-1.15,1.94q1.27,2.28,2.65,4.52a35.77,35.77,0,0,0,3.05,4.26q10.51,12.56,12.3,14.93a5.08,5.08,0,0,1,1,2.09.2.2,0,0,1-.34.17c-8.68-10.1-14.46-16.18-19.51-24.86a.28.28,0,0,0-.42-.07l-.38.32a.08.08,0,0,0,0,.12,12.1,12.1,0,0,1,2.31,9.32,1.54,1.54,0,0,0,.13,1l8.5,17.06a3.75,3.75,0,0,1,.33.9c.37,1.37.77,2.9,1.19,4.57l0,0a.33.33,0,0,1-.15-.14l-10.87-21.51a.7.7,0,0,0-1.12-.18,2.34,2.34,0,0,1-1.67.73.59.59,0,0,0-.59.77,111.13,111.13,0,0,0,4.22,12.29q4.81,10.08,6.44,13.6c0,.1,0,.2-.16.26a.15.15,0,0,1-.2-.06,207.08,207.08,0,0,1-13.38-29.3l-6-.08a51.34,51.34,0,0,1,1.57,5.51q3.63,16.29,6.66,26.22a140.85,140.85,0,0,0,12.56,29.29C1021.46,583.43,1037.49,590.1,1056.65,578.61ZM1057.9,510l.18-.32a.1.1,0,0,1,.12,0c9.09,5,23.74,16.62,24.94,27.78a.29.29,0,0,1-.22.31.28.28,0,0,1-.32-.17c-4.75-11.78-14.85-20.06-24.6-27.07A.37.37,0,0,1,1057.9,510Zm-37.26,58.17a.48.48,0,0,1-.24-.16q-2.35-2.35-5.8-8.7c-2.3-4.22-3.69-7.4-4.16-9.59a.5.5,0,0,1,0-.27c.05-.1.18-.16.38-.16a.12.12,0,0,1,.1,0c2.11,4,3.76,7.14,4.94,9.3s2.89,5.22,5.14,9.19a.11.11,0,0,1,0,.1C1020.86,568.13,1020.75,568.21,1020.64,568.2Zm5.34,1.57c-.42.24-2.66-3.06-5-7.38l-.21-.38c-2.32-4.29-3.88-8-3.46-8.21l.15-.09,8.67,16Zm1.51,2.7a1.1,1.1,0,0,1-.56-.77.34.34,0,0,1,.57-.35,2.19,2.19,0,0,1,.44.63A.36.36,0,0,1,1027.49,572.47Zm52.32-29.79a.49.49,0,0,1-.61-.25,59.57,59.57,0,0,0-14.28-19.86.09.09,0,0,1,0-.1l.17-.37a.23.23,0,0,1,.35-.07,43.91,43.91,0,0,1,14.65,20.07.44.44,0,0,1-.25.57Z"/><path class="cls-4" d="M1027.24,443.86a14.18,14.18,0,0,1,3.48-1.58c2-.7,4.57-1.72,6,.6a6.46,6.46,0,0,1,1.08,3.4,1.45,1.45,0,0,1-.51,1.1q-5,4.13-9.91,1.4a3,3,0,0,1-.15-4.92Z"/><path class="cls-3" d="M1035,461.06a.87.87,0,0,1,0-1.22,27.22,27.22,0,0,1,9.49-.34.34.34,0,0,1,.28.32.3.3,0,0,1-.27.31l-9.13,1.2a.14.14,0,0,1-.13,0l-.26-.23Z"/><path class="cls-2" d="M1070.64,593.29,1090.51,617a.46.46,0,0,0,.64.06l.3-.26a.57.57,0,0,0,.12-.74q-6.72-10.47-18.08-29.47c-2-3.25-4.74-6.27-6.93-9.65a.52.52,0,0,1,.11-.69.53.53,0,0,1,.7,0,72.63,72.63,0,0,1,7.1,7.75q5.15,6.38,16.38,20.63a.33.33,0,0,0,.46.08l0,0a.3.3,0,0,0,.09-.41,331.75,331.75,0,0,0-19.55-30.23.93.93,0,0,1,.15-1.28l.33-.27a.66.66,0,0,1,.9,0,195.53,195.53,0,0,1,21.13,24.56.36.36,0,0,0,.65-.3,22.51,22.51,0,0,0-2.81-6.16q-7.07-11.14-14.72-21.33c-.43-.59-.52-1.1-.22-1.54a.49.49,0,0,1,.71-.11,99.19,99.19,0,0,1,20,20.18.42.42,0,0,0,.55.11.41.41,0,0,0,.16-.51,102.49,102.49,0,0,0-15.38-24.75.46.46,0,0,1,0-.61.48.48,0,0,1,.61-.08,29.19,29.19,0,0,1,7.79,7.74,4.23,4.23,0,0,0,.76.82l4.24,3.5a.23.23,0,0,0,.36-.26l-3.64-8.07a.44.44,0,0,1,.16-.53.44.44,0,0,1,.55.09,79.42,79.42,0,0,1,9,13.94.43.43,0,0,0,.54.21.44.44,0,0,0,.27-.51c-2.58-10.91-8.35-18.81-15.85-27.23a1.29,1.29,0,0,1-.19-1.43l2-3.91a.76.76,0,0,1,1.23-.18q17,18,21.69,43.74c2.91,16.24,4,26.49,7.49,40.2a96.68,96.68,0,0,0,22,41.2,10.71,10.71,0,0,0,2.6,2,.21.21,0,0,1,.07.3.23.23,0,0,1-.31.09,24.9,24.9,0,0,1-2.25-1.38c-5.6-4.93-11-8.77-15.53-13.79A245.28,245.28,0,0,1,1104,628.87a.11.11,0,0,0-.11,0l-.36.16a.24.24,0,0,0-.1.34,193.13,193.13,0,0,0,21.68,30c5.16,6,12.51,12.22,18.8,15.38a17.51,17.51,0,0,1,5.09,3.45.2.2,0,0,1-.2.33q-32.86-10-45.5-12.86-17.77-4-35-9c-24.43-7.08-44.2-20.23-57.73-42.43-6.64-10.92-12.3-25.31-11.18-37.77a.55.55,0,0,1,1.08-.1,118,118,0,0,0,14.42,32,.43.43,0,0,0,.55.15.42.42,0,0,0,.2-.53c-2.75-7.41-5.59-14.21-6.68-21.42a.18.18,0,0,1,.12-.2.17.17,0,0,1,.2.1q6.18,13,10.46,21.68a15.29,15.29,0,0,0,2.71,3.73.4.4,0,0,0,.66-.42c-.79-2.14-2.34-4.68-3.19-7.78-2-7.32-3.62-12-3.65-15.22a.2.2,0,0,1,.37-.11q8.64,15.27,14.12,25.24a30.62,30.62,0,0,0,3.3,4.87.4.4,0,0,0,.52.08.39.39,0,0,0,.13-.5,180.42,180.42,0,0,1-12-30.53.24.24,0,0,1,.37-.27,4.39,4.39,0,0,1,1.53,1.52,275,275,0,0,0,16.76,29.2.51.51,0,0,0,.74.12l.25-.21a.26.26,0,0,0,.05-.3,185.82,185.82,0,0,1-12.87-28.63.31.31,0,0,1,.41-.39,2.77,2.77,0,0,1,1.4,1.22,227.8,227.8,0,0,0,17.52,26.39,40.27,40.27,0,0,0,5.2,5.78.36.36,0,0,0,.49,0,.37.37,0,0,0,.07-.49,223.58,223.58,0,0,1-17.87-31.65.39.39,0,0,1,.15-.51.42.42,0,0,1,.54.09q8,9.79,8.4,10.43c4.77,6.82,13,13.05,18.34,19.78a.19.19,0,0,0,.27,0,.2.2,0,0,0,.08-.27,30,30,0,0,0-3.32-4.79c-6.13-7.6-11.08-16.37-15.43-25a.37.37,0,0,1,.13-.49.37.37,0,0,1,.51,0,78.24,78.24,0,0,1,6.55,6.95q9.8,12.83,19,23.53a.41.41,0,0,0,.56,0l.23-.2a.11.11,0,0,0,0-.12,285.81,285.81,0,0,1-20-33.22.63.63,0,0,1,.21-.82.66.66,0,0,1,.86.14q10.34,13,21.69,28.78a182.74,182.74,0,0,0,21.41,25,75.12,75.12,0,0,0,6.39,5.56.27.27,0,0,0,.42-.28,2.9,2.9,0,0,0-.59-1.19A328.24,328.24,0,0,1,1072,597.08v0l-1.79-3.51a.25.25,0,0,1,.09-.31.27.27,0,0,1,.33,0Z"/><path class="cls-1" d="M1011.29,410.54a.35.35,0,0,1-.6-.23,1.57,1.57,0,0,1,.55-1.27c.37-.33.62-.19.75.41,0,.21-.19.57-.7,1.09Z"/><path class="cls-1" d="M1042,463.11a.43.43,0,0,1,.54.21.44.44,0,0,1-.17.56c-.77.45-1.16.66-1.2.67a.53.53,0,0,1-.55-.43.54.54,0,0,1,.33-.61l1-.4Z"/><path class="cls-1" d="M1082.6,537.59c-4.75-11.78-14.85-20.06-24.6-27.07a.37.37,0,0,1-.1-.49l.18-.32a.1.1,0,0,1,.12,0c9.09,5,23.74,16.62,24.94,27.78a.29.29,0,0,1-.22.31.28.28,0,0,1-.32-.17Z"/><path class="cls-4" d="M1035,459.84a.87.87,0,0,0,0,1.22,1.33,1.33,0,0,1-.51-.41.29.29,0,0,0-.11-.06l-14.78-4a.24.24,0,0,1-.18-.29.24.24,0,0,1,.27-.2l14.75,2a.51.51,0,0,1,.37.79c-.73,1.15-.66,1.48.21,1Z"/><path class="cls-1" d="M1064.91,522.47l.17-.37a.23.23,0,0,1,.35-.07,43.91,43.91,0,0,1,14.65,20.07.44.44,0,0,1-.25.57h0a.49.49,0,0,1-.61-.25,59.57,59.57,0,0,0-14.28-19.86.09.09,0,0,1,0-.1Z"/><path class="cls-1" d="M949.37,320.68a.22.22,0,0,1,.27.07.2.2,0,0,1,0,.26c-6,4.89-10,9.49-10.68,17.36a53.82,53.82,0,0,0,1.76,19.41.26.26,0,0,1-.11.28l-.18.12a.44.44,0,0,1-.67-.24c-4.32-14.53-5.42-29.92,9.66-37.26Z"/><path class="cls-1" d="M948.05,327.67c.27.16-.28,1.56-1.2,3.14s-1.89,2.72-2.16,2.57.28-1.56,1.2-3.14,1.89-2.72,2.16-2.57Z"/><path class="cls-4" d="M985.75,401.86a1.8,1.8,0,0,1,.37.93,35.24,35.24,0,0,1-2.3,8.59.64.64,0,0,1-.81.37,4.58,4.58,0,0,1-3.27-4.12q-.68-6.69,5.59-7.48a.63.63,0,0,1,.7.53.62.62,0,0,1-.2.58.47.47,0,0,0-.08.6Z"/><path class="cls-4" d="M985.59,434.53a44,44,0,0,0,1.74-8.88c.47-4.94,1.18-9.83,2.1-14.69a.88.88,0,0,1-.85-.58.91.91,0,0,1-.06-.61,3.47,3.47,0,0,0,.16-1.37.5.5,0,0,0-1,.05c-.2,2.67-1,4.1-2.48,4.3L985,434.44a.29.29,0,0,0,.25.3A.31.31,0,0,0,985.59,434.53Zm.83-19.49a2.09,2.09,0,0,1,.31-.47.27.27,0,0,1,.48.21c0,.24-.08.37-.09.42A.37.37,0,0,1,986.42,415Z"/><path class="cls-4" d="M1004.3,461.45a.13.13,0,0,1-.07-.17l0,0c.59-1.28,5.25-.37,10.4,2l.52.25c5.16,2.39,8.85,5.37,8.26,6.63l0,.05a.14.14,0,0,1-.18.07l-18.94-8.81Z"/><path class="cls-4" d="M1021.78,471.92a2.93,2.93,0,0,1-2.85-.73.32.32,0,0,1-.08-.38.29.29,0,0,1,.36-.14l2.57.89a.19.19,0,0,1,0,.36Z"/><path class="cls-5" d="M986.42,415a2.09,2.09,0,0,1,.31-.47.27.27,0,0,1,.48.21c0,.24-.08.37-.09.42a.37.37,0,0,1-.7-.16Z"/><path class="cls-1" d="M1017,484.15l-.25-.22a3.24,3.24,0,0,1,.24-2.4c-.13,0,0,.12.35.28a3.84,3.84,0,0,1-.34,2.34Z"/><path class="cls-1" d="M1017,484.15c0,1.82,0,3.59-.05,5.29a.81.81,0,0,1-.87.87c-.31,0-.51-.17-.58-.53q.33-2.22-2.05-4.08a91.15,91.15,0,0,1-16.85-17.24.35.35,0,0,1,.51-.48l18.28,16.15a.76.76,0,0,0,.18.09,1.18,1.18,0,0,0,1.18-.29l.25.22Z"/><path class="cls-1" d="M1008,491.17a92.92,92.92,0,0,1-11.66-17.7,15.22,15.22,0,0,1-1.76-6.63.44.44,0,0,1,.69-.36,2.08,2.08,0,0,1,.77,2.1,1.21,1.21,0,0,0,.13.64,70.21,70.21,0,0,0,17.26,22,11.15,11.15,0,0,1,10.22,5.61.22.22,0,0,1-.05.28.2.2,0,0,1-.28,0c-2.11-2-5.62-5.14-8.34-4.37a.33.33,0,0,0-.06.62,6.66,6.66,0,0,1,2.77,2.72.83.83,0,0,0,.2.22l5.9,5.07a.15.15,0,0,1,0,.22l-.18.19c-.06.05-.13.07-.18,0l-9.41-7.39a3.41,3.41,0,0,0-1.33-.67,9.76,9.76,0,0,1-4.7-2.6Z"/><path class="cls-1" d="M996.86,452.07c.28.29-.17,1.18-1,2s-1.74,1.2-2,.91.17-1.17,1-2,1.73-1.2,2-.91Z"/><path class="cls-1" d="M986.4,455.56a.46.46,0,0,1-.7.13l0,0a.34.34,0,0,1,0-.5,24.84,24.84,0,0,0,4.56-7.52.29.29,0,0,1,.54,0,1.91,1.91,0,0,1-.26,1.88c-2.05,2.89-3.41,4.9-4.06,6.05Z"/><path class="cls-1" d="M1003.78,491l0-.42a.44.44,0,0,1,.66-.44l2.48,1.39a21.65,21.65,0,0,0,4.29,5.58q6.78,6,13.49,12.07a.23.23,0,0,1-.3.35q-4.8-4-14.51-11.72a50.17,50.17,0,0,1-6.06-6.81Z"/><path class="cls-1" d="M983.19,450.09a.17.17,0,0,1-.24.08l-.06,0c-.68-.33-.81-1.47-.29-2.51l.59-1.18c.53-1,1.51-1.6,2.19-1.26l.06,0a.16.16,0,0,1,.08.23l-2.33,4.65Z"/><path class="cls-1" d="M990.67,457.35a2.72,2.72,0,0,1-2.79,1,.52.52,0,0,1-.18-.95,10.88,10.88,0,0,1,2.69-.52.31.31,0,0,1,.28.51Z"/><path class="cls-3" d="M946.08,441a8.7,8.7,0,0,0-5-2.58,143.4,143.4,0,0,1-25.49-6.82.57.57,0,0,1-.34-.74v0a.5.5,0,0,1,.62-.3,205.47,205.47,0,0,0,28.33,7.3.16.16,0,0,0,.12-.28,28.85,28.85,0,0,0-6.23-3.6q-14.61-6.37-24-10.78a.27.27,0,0,1-.12-.35v0a.32.32,0,0,1,.4-.16c9.51,3.71,20.57,7.84,30.06,13.57A.41.41,0,0,0,945,436l.17-.29a.69.69,0,0,0-.26-1l-3.13-1.84a.34.34,0,0,1-.15-.41.33.33,0,0,1,.37-.2,16.38,16.38,0,0,1,4.34,1.58.45.45,0,0,0,.63-.25l.08-.4a.93.93,0,0,0-.45-1l-1.09-.64a.33.33,0,0,1,.2-.62,3.2,3.2,0,0,1,2,1.23.75.75,0,0,0,1.12,0l.37-.36a.54.54,0,0,0,0-.8l-27.9-23.91a.06.06,0,0,1,0-.07l.35-.42a.41.41,0,0,1,.59-.05l27.72,22.79a1,1,0,0,0,1.21,0q.33-.24,1,.06a4,4,0,0,0,2.21.19.15.15,0,0,0,.08-.26L935,410a.35.35,0,0,1-.06-.44l.25-.43a.43.43,0,0,1,.69-.08l18.52,18.54a.9.9,0,0,0,1.54-.74,3.43,3.43,0,0,1,.5-2.43,2.78,2.78,0,0,0,0-3.28q-19.46-26.1-38.62-48.61C909.9,363.29,902.39,355,890,356a34.51,34.51,0,0,0-20.3,8.71c-14,12.1-25.71,29.2-23.89,47.89.71,7.25,5,11.38,11.11,14.9,16.38,9.37,33.49,11.19,55,14q6.39.82,33.91.07A.32.32,0,0,0,946.08,441Zm-37.34-70.6c-4.27-3.24-9.78-6.37-15-7.1s-11.42.76-16.41,2.7a.3.3,0,0,1-.31-.51,6.81,6.81,0,0,1,2.21-1.35q8.31-3.15,14.7-2.26t13.52,6.2a6.82,6.82,0,0,1,1.76,1.92A.3.3,0,0,1,908.74,370.36ZM868.1,415.84c1.89.43,4.52,1.66,7.42,2.62s5.74,1.55,7.51,2.32a.25.25,0,0,1,.14.29.24.24,0,0,1-.26.18,37.81,37.81,0,0,1-7.77-1.66,37.37,37.37,0,0,1-7.21-3.3.23.23,0,0,1-.11-.3A.24.24,0,0,1,868.1,415.84Zm15.61,13.71a46.9,46.9,0,0,1-25.34-8.08.49.49,0,0,1-.15-.65l0,0a.5.5,0,0,1,.69-.17,64,64,0,0,0,24.87,8.14.11.11,0,0,1,.08.08l.08.42A.24.24,0,0,1,883.71,429.55Zm56.91,3a9.26,9.26,0,0,1-2.31-1.41.34.34,0,0,1,.17-.62c.45,0,1.24.51,2.37,1.65A.23.23,0,0,1,940.62,432.57Zm-23.93-17.95,0-.05a.59.59,0,0,1,.8-.17l25.16,16a.6.6,0,0,1,.18.81l0,0a.58.58,0,0,1-.8.18l-25.16-16A.6.6,0,0,1,916.69,414.62Z"/><path class="cls-2" d="M906.3,351.43a.53.53,0,0,1-.82.62,134.79,134.79,0,0,1-28-32.45,100.78,100.78,0,0,1-14.21-37q-1.63-9.87-2.85-24.17s0,0,0,0l.53-.21a.29.29,0,0,1,.37.19c1.27,4.61,2,7.17,2.16,7.66q.43,1.33,3.9,15a131.3,131.3,0,0,0,4.4,14.79,116.76,116.76,0,0,0,17,29.19q4.55,5.76,11.27,13.48c2.13,2.45,4,5.67,6.2,8.47a.5.5,0,0,1,0,.66l-.32.33s-.06,0-.08,0l-9.31-8.77a.25.25,0,0,0-.35,0l-.25.26a.39.39,0,0,0,0,.56,119.54,119.54,0,0,1,8.52,8.46,10.42,10.42,0,0,1,1.86,2.94Z"/><path class="cls-3" d="M995.9,503.69l-6-.08a71.67,71.67,0,0,0-.35-16.75s0-.06,0-.1,0-.05,0,0l.33.51a1.65,1.65,0,0,1,.23.55,58.28,58.28,0,0,0,5.79,15.9Z"/><path class="cls-4" d="M965.58,450.8v-.69a2.51,2.51,0,0,1,1.34-.07.38.38,0,0,1,.06.71,2.11,2.11,0,0,1-1.41.05Z"/><path class="cls-4" d="M960.57,481.32a.93.93,0,0,1-.81-.65.53.53,0,0,0-.93-.12l-.74,1-.21.23-2.64-1.14c1.52-1.81,3.07-3.58,4.67-5.32,4.26-4.61,9.31-8.16,14-11.93a.29.29,0,0,1,.4,0,.32.32,0,0,1,0,.41l-13.8,17.5Z"/><path class="cls-5" d="M955.4,432.12a1.26,1.26,0,0,1-.59-.72c0-.32.43-.43.79-.18a1.11,1.11,0,0,1,.34.43.37.37,0,0,1-.54.47Z"/><path class="cls-1" d="M968.33,455a.33.33,0,0,1,0,.66c-8.24,1-15.66,1.73-22.53,4.76a.39.39,0,0,1-.53-.48c.73-2.3,2.15-2.39,4.12-3A45.64,45.64,0,0,1,968.33,455Z"/><path class="cls-1" d="M1026.13,569.7l-.15.07c-.42.24-2.66-3.06-5-7.38l-.21-.38c-2.33-4.3-3.89-8-3.46-8.21l.15-.09,8.67,16Z"/><path class="cls-5" d="M1027.49,572.47a1.1,1.1,0,0,1-.56-.77.34.34,0,0,1,.57-.35,2.46,2.46,0,0,1,.45.63.37.37,0,0,1-.46.49Z"/><path class="cls-1" d="M893.71,363.26c-5.27-.75-11.42.76-16.41,2.7a.3.3,0,0,1-.31-.51,6.81,6.81,0,0,1,2.21-1.35q8.31-3.15,14.7-2.26t13.52,6.2a6.82,6.82,0,0,1,1.76,1.92.3.3,0,0,1-.44.4c-4.27-3.24-9.78-6.37-15-7.1Z"/><path class="cls-1" d="M942.84,431.29a.6.6,0,0,1-.81.18l-25.16-16.05a.58.58,0,0,1-.18-.8l0,0a.58.58,0,0,1,.8-.18l25.16,16a.6.6,0,0,1,.18.81l0,0Z"/><path class="cls-1" d="M1015.85,558.67q1.77,3.24,5.14,9.19a.09.09,0,0,1,0,.1c-.12.17-.23.25-.34.24a.48.48,0,0,1-.24-.16q-2.35-2.35-5.8-8.7c-2.3-4.22-3.69-7.4-4.16-9.59a.5.5,0,0,1,0-.27c.05-.1.18-.16.38-.16a.12.12,0,0,1,.1,0c2.11,4,3.76,7.14,4.94,9.3Z"/><path class="cls-3" d="M986.94,579.38a63.91,63.91,0,0,0,2.79-16.22c.83-19.36-1.78-39.42-6.14-59a.58.58,0,0,0-.58-.44l-7,.43a.52.52,0,0,0-.47.53l1.81,23.16a.09.09,0,0,1,0,.08l-.46.27a.21.21,0,0,1-.3-.14l-3.1-23.41a1.85,1.85,0,0,0-.5-1,9,9,0,0,1-2.37-6.7.46.46,0,0,0-.79-.34c-.84.86-.84,1.94,0,3.22a1.82,1.82,0,0,1,.29,1.11l-2.28,25.67a.2.2,0,0,1-.18.19l-.33,0a.5.5,0,0,1-.52-.51q.56-13.22,1.89-26.27a7.81,7.81,0,0,0-.41-3.38.67.67,0,0,0-1.28.05l-7.54,28.3a.12.12,0,0,1-.11.09l-.35,0a.18.18,0,0,1-.19-.21,238.66,238.66,0,0,1,6.94-28.33,2.66,2.66,0,0,0-.59-2.61l-.24-.2a1.13,1.13,0,0,0-1.83.56L955.84,521a.11.11,0,0,1-.12.07h0a.3.3,0,0,1-.24-.34,222,222,0,0,1,5.79-25.48,15.68,15.68,0,0,0,.38-7,.23.23,0,0,0-.44-.05l-13.63,35.44a.35.35,0,0,1-.53.16l-.66-.5a.1.1,0,0,1,0-.1q8.11-20.7,14.22-41.87a.93.93,0,0,1-.81-.65.53.53,0,0,0-.93-.12l-.74,1c.21-.22.42-.3.62-.22a.27.27,0,0,1,.12.41,83.9,83.9,0,0,0-7.46,12.59.32.32,0,0,1-.39.16.33.33,0,0,1-.21-.37,23.18,23.18,0,0,1,7.11-12.34l-2.64-1.14q-8,11.61-15.83,23.4A271.18,271.18,0,0,0,919,540.59a75.88,75.88,0,0,0-5.32,15c-5.82,25.74,25.92,38,45.37,40.68C972,598.1,983,592.25,986.94,579.38Zm-15.65-71.95a3.48,3.48,0,0,1-.43-2.57.38.38,0,0,1,.73.1l.29,2.3a.31.31,0,0,1-.23.34A.3.3,0,0,1,971.29,507.43ZM921.37,570a4,4,0,0,1-.46-.58c-2.61-3.72-1.06-12.19.28-16.66a138.92,138.92,0,0,1,15.6-34.18.34.34,0,0,1,.48-.11l0,0a.34.34,0,0,1,.13.46c-7.12,13.43-13.26,26.85-15.92,41.47a19.05,19.05,0,0,0,.31,9.15A.35.35,0,0,1,921.37,570Zm3.06,1-.67-.14a.18.18,0,0,1-.15-.22l.73-3.83c1.42-7.25,2.81-13.08,3.09-13s-.61,6-2,13.25l-.74,3.82A.2.2,0,0,1,924.43,571Zm48.2,20.9a.2.2,0,0,1,0-.27c6.2-7.8,7.94-17.91,9-27.27a.29.29,0,0,1,.29-.25h.29s.07,0,.07.06c.13,8.13-2.15,22.63-9.31,27.76A.22.22,0,0,1,972.63,591.93Z"/><path class="cls-1" d="M940.62,432.57a9.26,9.26,0,0,1-2.31-1.41.34.34,0,0,1,.17-.62c.45,0,1.24.51,2.37,1.65a.23.23,0,0,1-.23.38Z"/><path class="cls-1" d="M970.68,495a.46.46,0,0,1-.21.47.17.17,0,0,1-.28-.12.64.64,0,0,1,.23-.41.15.15,0,0,1,.26.06Z"/><path class="cls-4" d="M950.93,464.54a27,27,0,0,1-12.24,8.35,1.29,1.29,0,0,1-1.59-.67,2.83,2.83,0,0,0-1.19-1.45,1.15,1.15,0,0,1-.18-2,27.82,27.82,0,0,1,15-4.7.28.28,0,0,1,.24.45Z"/><path class="cls-1" d="M957.88,481.78l.21-.23c.21-.22.42-.3.62-.22a.27.27,0,0,1,.12.41,83.9,83.9,0,0,0-7.46,12.59.32.32,0,0,1-.39.16.33.33,0,0,1-.21-.37,23.18,23.18,0,0,1,7.11-12.34Z"/><path class="cls-3" d="M971.29,507.43a3.48,3.48,0,0,1-.43-2.57.38.38,0,0,1,.73.1l.29,2.3a.31.31,0,0,1-.23.34.3.3,0,0,1-.36-.17Z"/><path class="cls-3" d="M893.5,529.9a216,216,0,0,0,29.92-25q12.41-12.54,13.19-13.45,6.92-8,11-13.66a.71.71,0,0,0-.64-1.14l-1.26.12a1.39,1.39,0,0,0-.73.27,165.78,165.78,0,0,1-22.5,14,.51.51,0,0,1-.66-.21v0a.53.53,0,0,1,.17-.71c9.71-6.2,16.3-10.11,22.66-16.61a.08.08,0,0,0-.09-.13l-8.26,3.14-.1,0a112.07,112.07,0,0,1-22.38,9.85.56.56,0,0,1-.71-.33v0a.55.55,0,0,1,.3-.7,188.21,188.21,0,0,0,23-11.47.4.4,0,0,0-.07-.72l-2.37-.77a.4.4,0,0,1-.23-.19,1.16,1.16,0,0,0-1.57-.49q-12,4-21.92,8.32a.32.32,0,0,1-.47-.14.22.22,0,0,1,.07-.28,46.87,46.87,0,0,1,8.37-4.29,120.46,120.46,0,0,1,14.11-5.16,1.26,1.26,0,0,0,.81-.7l1-2.31a.26.26,0,0,0-.3-.36l-23.16,6.17a.07.07,0,0,1-.08-.05l-.12-.3a.6.6,0,0,1,.36-.77q10.56-3.56,21.81-6.33a23.75,23.75,0,0,0,6-2.63.51.51,0,0,0-.32-.95A235.74,235.74,0,0,0,909,467.62a.55.55,0,0,1-.67-.4v0a.46.46,0,0,1,.32-.56q14.21-3.94,27.07-6.67a10.28,10.28,0,0,0,6.58-4.26.52.52,0,0,0-.29-.8l-5.75-1.56a1.69,1.69,0,0,1-1.09-.95,5.3,5.3,0,0,0-2.46-2.89,2.85,2.85,0,0,0-1.38-.28q-10.35.55-29.4-.16a175.38,175.38,0,0,0-35.66,2.13c-9.26,1.55-18.85,6-23,14.43-2.07,4.19-3.06,8-2.94,11.33a110,110,0,0,0,6.91,34.78c3.39,9.21,10.13,21.95,18.54,25.37C875.26,541,885.28,535.5,893.5,529.9Zm-43.68-55.25c-.14-.26,1.35-1.49,3.35-2.76s3.77-2.09,3.93-1.83-1.35,1.49-3.35,2.76S850,474.9,849.82,474.65Zm15.53-11.88a27.09,27.09,0,0,0-10.63,5.08.42.42,0,0,1-.68-.34c0-.62.54-1.23,1.55-1.84,7.72-4.7,13.9-5,25.27-7.09a.28.28,0,0,1,.33.22v0a.28.28,0,0,1-.21.33Q867,462.32,865.35,462.77Zm23.39-7.66c-7.18.85-12.62,1.36-16.35,1.52a39.73,39.73,0,0,0-19.16,5.62.38.38,0,0,1-.54-.5c4.09-7.45,27.84-7.55,35.86-7.39a.3.3,0,0,1,.25.21l.06.39A.13.13,0,0,1,888.74,455.11ZM879,531.65a18.74,18.74,0,0,1-6.4,1.21.39.39,0,0,1-.4-.34.4.4,0,0,1,.29-.43c13.58-3.74,25.33-11.7,35.7-21a.41.41,0,0,1,.58,0l.08.09a.36.36,0,0,1,0,.51A79.39,79.39,0,0,1,879,531.65Z"/><path class="cls-2" d="M852.36,437.37a.23.23,0,0,0-.16-.25c-5.2-1.62-11.65-3.15-16.81-5.56q-7.36-3.42-15.57-7c-5.15-2.23-9.07-4.9-13.75-8.07a.44.44,0,0,1,.24-.8c2.69,0,5.41,1.56,9.57,3.5a56.54,56.54,0,0,0,20.31,4.8.29.29,0,0,0,.31-.23.29.29,0,0,0-.18-.33A311.79,311.79,0,0,1,800,406.32a.19.19,0,0,1-.09-.25h0a.26.26,0,0,1,.35-.14A156.23,156.23,0,0,0,825,413.65a50.39,50.39,0,0,0,10.65,1.28.34.34,0,0,0,.14-.66l-27.89-12a.37.37,0,0,1-.2-.47l.1-.31a.36.36,0,0,1,.44-.22q10.51,3.19,22.38,5.6a13.56,13.56,0,0,0,3,.32.52.52,0,0,0,.33-.92,14.17,14.17,0,0,0-3.79-2.4q-14-5.88-38.25-17.67-2.6-1.26-15.65-9.79a.15.15,0,0,1-.05-.19l.18-.35a.3.3,0,0,1,.43-.11,189,189,0,0,0,50.37,22.78.13.13,0,0,0,.13-.06.09.09,0,0,0,0-.13,228.1,228.1,0,0,0-25.93-15.84.24.24,0,0,1-.12-.32.28.28,0,0,1,.33-.15l36.93,12.81s0,0,.06,0,0,0,0-.05q-5.12-3.12-8.17-5-21.59-13.21-57.92-32-39.52-20.44-47.87-25.71a.11.11,0,0,1,0-.14l.15-.28a.19.19,0,0,1,.26-.09c10.88,4.7,22.38,11.78,31.87,16.19q37,17.25,66,29,10.72,4.33,16.38,6a.41.41,0,0,0,.39-.69,74.45,74.45,0,0,0-11.4-8.66q-14.4-8.83-27.66-15.39a.13.13,0,0,1,0-.19c0-.1.16-.14.33-.11a23,23,0,0,1,5.91,2q9.44,4.25,19,8.21A56.2,56.2,0,0,0,838,371.39c.39.07.59.09.6.09a.71.71,0,0,0,0-1.28l-17.4-8.7a.3.3,0,0,1-.14-.39l.19-.48a.11.11,0,0,1,.13,0l29.35,10.94a.46.46,0,0,0,.53-.19.45.45,0,0,0-.12-.54,142.27,142.27,0,0,0-21.55-14,.55.55,0,0,1-.24-.74l0,0a.46.46,0,0,1,.63-.2q16.61,8.42,19.4,9.67a37.34,37.34,0,0,0,4.63,1.53.21.21,0,0,0,.21-.34,80,80,0,0,0-15.89-13.12.29.29,0,0,1-.1-.35.26.26,0,0,1,.33-.13,44.18,44.18,0,0,1,7.8,3.78q1.41.81,8.64,2.75a6.56,6.56,0,0,0,2.92-.49.23.23,0,0,0,0-.42L843.85,351a.12.12,0,0,1-.05-.13l.12-.29a.41.41,0,0,1,.52-.23q8.41,3.15,18.26,7.41a9,9,0,0,0,3.42-.31.49.49,0,0,0,.3-.76,22.32,22.32,0,0,0-4.86-4.64c-14.07-10.47-28.42-11.3-46.54-10.37q-19.85,1-21.63,1A141.41,141.41,0,0,1,759,337.43c-13.91-3.88-22-6.31-33.31-7a28.12,28.12,0,0,0-9,.81.44.44,0,0,0-.07.83,52.74,52.74,0,0,1,19.61,14.23,114.06,114.06,0,0,1,7.88,9.78c13.7,20.28,25.89,38.91,42.61,55,18,17.31,40.64,27,65.39,26.46A.25.25,0,0,0,852.36,437.37Zm-98.91-80.75c-6.42-4.88-11.45-9.05-11.24-9.33s5.57,3.47,12,8.34,11.45,9.05,11.24,9.33S759.87,361.49,753.45,356.62Z"/><path class="cls-1" d="M972.62,591.66c6.2-7.8,7.94-17.91,9-27.27a.29.29,0,0,1,.29-.25h.29s.07,0,.07.06c.13,8.13-2.15,22.63-9.31,27.76a.22.22,0,0,1-.29,0,.2.2,0,0,1,0-.27Z"/><path class="cls-1" d="M875.14,419.59a37.37,37.37,0,0,1-7.21-3.3.23.23,0,0,1-.11-.3.24.24,0,0,1,.28-.15c1.89.43,4.52,1.66,7.42,2.62s5.74,1.55,7.51,2.32a.25.25,0,0,1,.14.29.24.24,0,0,1-.26.18,37.81,37.81,0,0,1-7.77-1.66Z"/><path class="cls-1" d="M921.37,570a3.64,3.64,0,0,1-.45-.58c-2.62-3.72-1.07-12.19.27-16.66a138.92,138.92,0,0,1,15.6-34.18.34.34,0,0,1,.48-.11l0,0a.34.34,0,0,1,.13.46c-7.12,13.43-13.26,26.85-15.92,41.47a19.05,19.05,0,0,0,.31,9.15.35.35,0,0,1-.44.43Z"/><path class="cls-1" d="M883.88,428.85l.08.42a.24.24,0,0,1-.25.28,46.9,46.9,0,0,1-25.34-8.08.49.49,0,0,1-.15-.65l0,0a.5.5,0,0,1,.69-.17,64,64,0,0,0,24.87,8.14.11.11,0,0,1,.08.08Z"/><path class="cls-1" d="M888.8,454.57l.06.38a.13.13,0,0,1-.12.16c-7.18.85-12.62,1.36-16.35,1.52a39.73,39.73,0,0,0-19.16,5.62.38.38,0,0,1-.54-.5c4.09-7.45,27.84-7.55,35.86-7.39a.3.3,0,0,1,.25.21Z"/><path class="cls-1" d="M880.86,458.58a.28.28,0,0,1,.33.22v0a.28.28,0,0,1-.21.33q-14,3.16-15.63,3.61a27.09,27.09,0,0,0-10.63,5.08.42.42,0,0,1-.68-.34c0-.62.54-1.23,1.55-1.84,7.72-4.7,13.9-5,25.27-7.09Z"/><path class="cls-2" d="M950.62,624a.14.14,0,0,0,.19.14h0A.18.18,0,0,0,951,624l7.3-21.84a2.51,2.51,0,0,1,1.23-1.41l.28-.14a.47.47,0,0,1,.67.52c-.87,4.05-1.93,8.56-3.19,13.59a141.87,141.87,0,0,1-16.11,39.17c-2.53,4.19-5.9,7.52-8.56,11.35a.24.24,0,0,1-.3.07h0a.25.25,0,0,1-.1-.34,142.7,142.7,0,0,0,10-25.66c3.57-12.06,5.48-21.94,9.67-32.33a.14.14,0,0,1,.26.06l-1.57,17Z"/><path class="cls-1" d="M872.47,532.09c13.58-3.74,25.33-11.7,35.7-21a.41.41,0,0,1,.58,0l.08.09a.36.36,0,0,1,0,.51A79.39,79.39,0,0,1,879,531.65a18.74,18.74,0,0,1-6.4,1.21.39.39,0,0,1-.4-.34.4.4,0,0,1,.29-.43Z"/><path class="cls-1" d="M923.76,570.89a.18.18,0,0,1-.15-.22l.73-3.83c1.42-7.25,2.81-13.08,3.09-13s-.61,6-2,13.25l-.74,3.82a.2.2,0,0,1-.23.16l-.67-.14Z"/><path class="cls-2" d="M878.53,625.53c13.25-7.93,27.21-17.6,33.33-32,1-2.39,1.21-5.63.57-9.76a.32.32,0,0,0-.59-.12c-.6.93-1,2.91-2,4.43q-3.13,4.45-8.07,10.91a.51.51,0,0,1-.69.1h0a.46.46,0,0,1-.1-.64,41.63,41.63,0,0,0,7.73-21,1,1,0,0,1,.1-.22.56.56,0,0,0,.09-.34.12.12,0,0,0-.22,0c-3.09,5.74-5,9.29-5.81,10.66a87.61,87.61,0,0,1-8,11.43.26.26,0,0,1-.36,0h0a.33.33,0,0,1,0-.42l3.18-4.71a2.87,2.87,0,0,0,.32-.63l8.44-24.35a.23.23,0,0,0-.13-.31.24.24,0,0,0-.33.1q-6.27,10.93-13.82,23.12c-4.4,7.11-10.82,15.3-15.64,19.57a.3.3,0,0,1-.37,0,.28.28,0,0,1,0-.37,140.23,140.23,0,0,0,20.6-36.59.06.06,0,0,0,0-.09s-.07,0-.1,0l-13.33,18.05a.28.28,0,0,1-.34.07.27.27,0,0,1-.09-.34q2.64-5.42,7.35-14c1.38-2.51,4.33-6.87,5.81-10.31q7.82-18.22,13.81-31.35a.23.23,0,0,0-.11-.31h0a.16.16,0,0,0-.21.06q-6.82,11.93-14.19,25.29c-3.37,6.11-5.42,11.18-8.32,17.16q-6.21,12.78-6.24,12.82A66.52,66.52,0,0,1,867.43,608a.65.65,0,0,1-.88,0v0a.66.66,0,0,1,0-.91,120.47,120.47,0,0,0,18.42-28.32,149.67,149.67,0,0,0,5.91-15.57,152.53,152.53,0,0,1,6-15.62.16.16,0,0,0-.06-.2.16.16,0,0,0-.21,0q-8.58,11-18.63,24.36-7.51,10-27.18,33a76.42,76.42,0,0,1-10.38,10.27.39.39,0,0,1-.65-.32,1.58,1.58,0,0,1,.34-.85c12-16.95,23.23-34,34.65-50.78a128.26,128.26,0,0,0,9.94-17.55.16.16,0,0,0-.06-.2.15.15,0,0,0-.19,0q-6.08,6.74-19.3,21.9c-7,8.06-12.58,16-18.69,23.28a.46.46,0,0,1-.64.08v0a.33.33,0,0,1-.07-.45q12.33-16.77,26.17-36c1.69-2.35,4-4.71,5.51-6.62a.11.11,0,0,0,0-.15.12.12,0,0,0-.16,0c-2.86,2.5-5.63,4.23-8.7,7.27a151.52,151.52,0,0,0-24.69,32.42,14,14,0,0,0-1.62,4.13.18.18,0,0,1-.3.11l-.55-.41a.1.1,0,0,1,0-.12,137.25,137.25,0,0,1,10.24-21,74.8,74.8,0,0,1,10.23-12.88q6-6.27,12.43-14.38a.33.33,0,0,0-.35-.51,12.61,12.61,0,0,0-5.09,3q-9.54,8.81-18.71,19a.42.42,0,0,1-.58,0l-.55-.46s0,0,0,0l17.78-22.46a.7.7,0,0,0-.51-1.14h-.29a4.56,4.56,0,0,0-3.1,1.1,134.3,134.3,0,0,0-23,25.15q-3.68,5.36-9.23,15.05a.3.3,0,0,1-.38.13A.3.3,0,0,1,830,581a51.62,51.62,0,0,1,4.45-13.52,103.89,103.89,0,0,1,22.9-31,1.86,1.86,0,0,0-2.23-3,81.77,81.77,0,0,0-25.94,25.63.15.15,0,0,1-.27-.06l-.12-.69a.21.21,0,0,1,0-.15q6.43-12.54,24.43-27.46a1,1,0,0,0,.13-1.43l-2.48-3a.89.89,0,0,0-1.21-.14c-8.08,6-16.66,13.8-22.42,23q-6.36,10.18-6.84,11.21a81.82,81.82,0,0,0-7.73,32.9c-.53,27.42.57,54.75-24.62,72.77a.26.26,0,0,0-.09.29.69.69,0,0,0,.56.36.3.3,0,0,0,.3-.07l1.08-.9a1.31,1.31,0,0,1,.57-.27c1.7-.31,4.21-1.48,7.53-3.49,15.27-9.24,25.38-22.2,34.2-37.38a.31.31,0,0,1,.39-.13.29.29,0,0,1,.17.37A31.59,31.59,0,0,1,830.6,630a89.49,89.49,0,0,1-32.31,34.29,14.13,14.13,0,0,1-7.17,2.37.51.51,0,0,0-.51.51v.08a.49.49,0,0,0,.47.48,31.81,31.81,0,0,0,16.32-3.48,206.84,206.84,0,0,0,19.18-11.43,236.16,236.16,0,0,1,30-16.33Q873.29,628.67,878.53,625.53Zm-5-35.71c-.35-.2,3.22-6.82,8-14.78s8.87-14.25,9.22-14-3.22,6.82-8,14.79S873.87,590,873.53,589.82Zm-50.91,62.73,0,0c-.5-.75,4.5-5,11.16-9.43l.37-.23c6.66-4.46,12.47-7.46,13-6.72l0,0a0,0,0,0,1,0,.06l-24.44,16.34S822.63,652.57,822.62,652.55Z"/><path class="cls-1" d="M857.09,470.06c.16.25-1.33,1.48-3.34,2.76s-3.77,2.08-3.92,1.83,1.33-1.49,3.34-2.76,3.77-2.09,3.92-1.83Z"/><path class="cls-1" d="M890.72,561c.35.21-3.22,6.82-8,14.79s-8.88,14.24-9.22,14,3.22-6.82,8-14.78,8.87-14.25,9.22-14Z"/><path class="cls-2" d="M825.79,485.62a.38.38,0,0,1,.19.71q-19.15,12.14-43,25.06c-10.19,5.53-21.75,8.62-32.71,6.66-3.69-.64-6.24-1.16-7.65-1.52a.34.34,0,0,1-.26-.37.35.35,0,0,1,.35-.3c13.48.48,26.4-2.35,37.54-10,10.43-7.16,24.86-19,39.82-25.68a41.88,41.88,0,0,1,11.16-3.44.64.64,0,0,1,.54,1.08,12,12,0,0,1-3.8,2.47,154.16,154.16,0,0,0-14.88,7.27,3.93,3.93,0,0,0-1.11.87c-.41.44-.8.84-1.18,1.21s-.67.51-.87.41-.46-.14-.55,0a.24.24,0,0,0,.26.38c6.71-2.59,11-4.89,16.17-4.8Z"/><path class="cls-1" d="M765.45,365c-.21.27-5.58-3.46-12-8.33s-11.45-9.05-11.24-9.32,5.57,3.46,12,8.33,11.45,9.05,11.25,9.32Z"/><path class="cls-1" d="M822.67,652.56s0,0,0,0l0,0c-.5-.75,4.5-5,11.16-9.43l.37-.23c6.66-4.46,12.47-7.46,13-6.72l0,0a0,0,0,0,1,0,.06l-24.44,16.34Z"/></svg>